<mxfile host="app.diagrams.net" modified="2024-03-27T20:02:20.373Z" agent="Mozilla/5.0 (Windows NT 10.0; Win64; x64) AppleWebKit/537.36 (KHTML, like Gecko) Chrome/123.0.0.0 Safari/537.36" etag="_bVOxe8BKhu3bk9kaYVy" version="24.2.0" type="github">
  <diagram name="Page-1" id="2YBvvXClWsGukQMizWep">
    <mxGraphModel dx="2085" dy="614" grid="1" gridSize="10" guides="1" tooltips="1" connect="1" arrows="1" fold="1" page="1" pageScale="1" pageWidth="850" pageHeight="1100" math="0" shadow="0">
      <root>
        <mxCell id="0" />
        <mxCell id="1" parent="0" />
        <mxCell id="4ikW2BazAHk21ai5Y3Cd-50" value="" style="rounded=0;whiteSpace=wrap;html=1;" vertex="1" parent="1">
          <mxGeometry x="63" y="255" width="836" height="280" as="geometry" />
        </mxCell>
        <mxCell id="4ikW2BazAHk21ai5Y3Cd-53" value="" style="dashed=0;outlineConnect=0;html=1;align=center;labelPosition=center;verticalLabelPosition=bottom;verticalAlign=top;shape=mxgraph.weblogos.mongodb" vertex="1" parent="1">
          <mxGeometry x="73" y="260" width="30" height="70" as="geometry" />
        </mxCell>
        <mxCell id="4ikW2BazAHk21ai5Y3Cd-54" value="mongoDB" style="text;strokeColor=none;align=center;fillColor=none;html=1;verticalAlign=middle;whiteSpace=wrap;rounded=0;" vertex="1" parent="1">
          <mxGeometry x="63" y="330" width="60" height="30" as="geometry" />
        </mxCell>
        <mxCell id="4ikW2BazAHk21ai5Y3Cd-55" value="" style="endArrow=classic;html=1;rounded=0;entryX=0;entryY=0.25;entryDx=0;entryDy=0;" edge="1" parent="1">
          <mxGeometry width="50" height="50" relative="1" as="geometry">
            <mxPoint x="109" y="317" as="sourcePoint" />
            <mxPoint x="176" y="336.5" as="targetPoint" />
          </mxGeometry>
        </mxCell>
        <mxCell id="4ikW2BazAHk21ai5Y3Cd-56" value="" style="rounded=0;whiteSpace=wrap;html=1;" vertex="1" parent="1">
          <mxGeometry x="179" y="285" width="630" height="170" as="geometry" />
        </mxCell>
        <mxCell id="4ikW2BazAHk21ai5Y3Cd-57" value="&lt;font size=&quot;1&quot; color=&quot;#ff0000&quot;&gt;&lt;b style=&quot;font-size: 21px;&quot;&gt;Training pipeline&lt;/b&gt;&lt;/font&gt;" style="text;strokeColor=none;align=center;fillColor=none;html=1;verticalAlign=middle;whiteSpace=wrap;rounded=0;" vertex="1" parent="1">
          <mxGeometry x="179" y="295" width="180" height="30" as="geometry" />
        </mxCell>
        <mxCell id="4ikW2BazAHk21ai5Y3Cd-58" value="data ingestion" style="rounded=0;whiteSpace=wrap;html=1;fillColor=#d5e8d4;strokeColor=#82b366;" vertex="1" parent="1">
          <mxGeometry x="189" y="335" width="90" height="30" as="geometry" />
        </mxCell>
        <mxCell id="4ikW2BazAHk21ai5Y3Cd-59" value="data validation" style="rounded=0;whiteSpace=wrap;html=1;fillColor=#d5e8d4;strokeColor=#82b366;" vertex="1" parent="1">
          <mxGeometry x="299" y="385" width="90" height="30" as="geometry" />
        </mxCell>
        <mxCell id="4ikW2BazAHk21ai5Y3Cd-60" value="data transformation" style="rounded=0;whiteSpace=wrap;html=1;fillColor=#d5e8d4;strokeColor=#82b366;" vertex="1" parent="1">
          <mxGeometry x="399" y="315" width="90" height="30" as="geometry" />
        </mxCell>
        <mxCell id="4ikW2BazAHk21ai5Y3Cd-61" value="model evaluation" style="rounded=0;whiteSpace=wrap;html=1;fillColor=#d5e8d4;strokeColor=#82b366;" vertex="1" parent="1">
          <mxGeometry x="619" y="314" width="90" height="30" as="geometry" />
        </mxCell>
        <mxCell id="4ikW2BazAHk21ai5Y3Cd-62" value="model pusher" style="rounded=0;whiteSpace=wrap;html=1;fillColor=#b1ddf0;strokeColor=#10739e;" vertex="1" parent="1">
          <mxGeometry x="709" y="388" width="90" height="30" as="geometry" />
        </mxCell>
        <mxCell id="4ikW2BazAHk21ai5Y3Cd-63" value="model trainer" style="rounded=0;whiteSpace=wrap;html=1;fillColor=#d5e8d4;strokeColor=#82b366;" vertex="1" parent="1">
          <mxGeometry x="509" y="385" width="90" height="30" as="geometry" />
        </mxCell>
        <mxCell id="4ikW2BazAHk21ai5Y3Cd-64" value="" style="edgeStyle=elbowEdgeStyle;elbow=horizontal;endArrow=classic;html=1;curved=0;rounded=0;endSize=8;startSize=8;" edge="1" parent="1">
          <mxGeometry width="50" height="50" relative="1" as="geometry">
            <mxPoint x="351" y="382" as="sourcePoint" />
            <mxPoint x="401" y="332" as="targetPoint" />
          </mxGeometry>
        </mxCell>
        <mxCell id="4ikW2BazAHk21ai5Y3Cd-65" value="" style="edgeStyle=elbowEdgeStyle;elbow=horizontal;endArrow=classic;html=1;curved=0;rounded=0;endSize=8;startSize=8;" edge="1" parent="1">
          <mxGeometry width="50" height="50" relative="1" as="geometry">
            <mxPoint x="567" y="383" as="sourcePoint" />
            <mxPoint x="617" y="333" as="targetPoint" />
          </mxGeometry>
        </mxCell>
        <mxCell id="4ikW2BazAHk21ai5Y3Cd-66" value="" style="endArrow=classic;html=1;rounded=0;entryX=0.188;entryY=0.88;entryDx=0;entryDy=0;entryPerimeter=0;jumpSize=2;" edge="1" parent="1">
          <mxGeometry width="50" height="50" relative="1" as="geometry">
            <mxPoint x="234" y="365" as="sourcePoint" />
            <mxPoint x="297.31999999999994" y="405" as="targetPoint" />
          </mxGeometry>
        </mxCell>
        <mxCell id="4ikW2BazAHk21ai5Y3Cd-67" value="" style="endArrow=classic;html=1;rounded=0;entryX=0.188;entryY=0.88;entryDx=0;entryDy=0;entryPerimeter=0;" edge="1" parent="1">
          <mxGeometry width="50" height="50" relative="1" as="geometry">
            <mxPoint x="450" y="346" as="sourcePoint" />
            <mxPoint x="513.3199999999999" y="386" as="targetPoint" />
          </mxGeometry>
        </mxCell>
        <mxCell id="4ikW2BazAHk21ai5Y3Cd-68" value="" style="endArrow=classic;html=1;rounded=0;entryX=0.188;entryY=0.88;entryDx=0;entryDy=0;entryPerimeter=0;startSize=4;endSize=3;" edge="1" parent="1">
          <mxGeometry width="50" height="50" relative="1" as="geometry">
            <mxPoint x="662" y="349" as="sourcePoint" />
            <mxPoint x="712.3199999999999" y="380" as="targetPoint" />
          </mxGeometry>
        </mxCell>
        <mxCell id="4ikW2BazAHk21ai5Y3Cd-69" value="" style="endArrow=classic;html=1;rounded=0;exitX=0.676;exitY=-0.08;exitDx=0;exitDy=0;exitPerimeter=0;" edge="1" parent="1">
          <mxGeometry width="50" height="50" relative="1" as="geometry">
            <mxPoint x="764.8399999999999" y="385.6" as="sourcePoint" />
            <mxPoint x="764" y="359" as="targetPoint" />
          </mxGeometry>
        </mxCell>
        <mxCell id="4ikW2BazAHk21ai5Y3Cd-70" value="push to local folder if model accuracy remains same" style="text;strokeColor=none;align=center;fillColor=none;html=1;verticalAlign=middle;whiteSpace=wrap;rounded=0;" vertex="1" parent="1">
          <mxGeometry x="727" y="323" width="150" height="30" as="geometry" />
        </mxCell>
        <mxCell id="4ikW2BazAHk21ai5Y3Cd-71" value="push to s3 if model accuracy improved" style="text;strokeColor=none;align=center;fillColor=none;html=1;verticalAlign=middle;whiteSpace=wrap;rounded=0;" vertex="1" parent="1">
          <mxGeometry x="759" y="418" width="150" height="30" as="geometry" />
        </mxCell>
        <mxCell id="4ikW2BazAHk21ai5Y3Cd-72" value="" style="outlineConnect=0;dashed=0;verticalLabelPosition=bottom;verticalAlign=top;align=center;html=1;shape=mxgraph.aws3.s3;fillColor=#E05243;gradientColor=none;" vertex="1" parent="1">
          <mxGeometry x="737" y="455" width="62" height="60" as="geometry" />
        </mxCell>
        <mxCell id="4ikW2BazAHk21ai5Y3Cd-73" value="Amazon S3 model registry" style="text;strokeColor=none;align=center;fillColor=none;html=1;verticalAlign=middle;whiteSpace=wrap;rounded=0;" vertex="1" parent="1">
          <mxGeometry x="719" y="515" width="145" height="20" as="geometry" />
        </mxCell>
        <mxCell id="4ikW2BazAHk21ai5Y3Cd-74" value="&lt;font color=&quot;#3333ff&quot;&gt;preprocessing.pkl&lt;/font&gt;" style="text;strokeColor=none;align=center;fillColor=none;html=1;verticalAlign=middle;whiteSpace=wrap;rounded=0;" vertex="1" parent="1">
          <mxGeometry x="428" y="352" width="60" height="30" as="geometry" />
        </mxCell>
        <mxCell id="4ikW2BazAHk21ai5Y3Cd-75" value="&lt;font color=&quot;#3333ff&quot;&gt;model.pkl&lt;/font&gt;" style="text;strokeColor=none;align=center;fillColor=none;html=1;verticalAlign=middle;whiteSpace=wrap;rounded=0;" vertex="1" parent="1">
          <mxGeometry x="699" y="418" width="60" height="30" as="geometry" />
        </mxCell>
        <mxCell id="4ikW2BazAHk21ai5Y3Cd-76" value="&lt;font size=&quot;1&quot; color=&quot;#ff0000&quot;&gt;&lt;b style=&quot;font-size: 21px;&quot;&gt;Prediction pipeline&lt;/b&gt;&lt;/font&gt;" style="text;strokeColor=none;align=center;fillColor=none;html=1;verticalAlign=middle;whiteSpace=wrap;rounded=0;" vertex="1" parent="1">
          <mxGeometry x="181" y="475" width="190" height="30" as="geometry" />
        </mxCell>
        <mxCell id="4ikW2BazAHk21ai5Y3Cd-77" value="" style="endArrow=classic;html=1;rounded=0;jumpSize=2;dashed=1;strokeColor=#3C26FF;" edge="1" parent="1">
          <mxGeometry width="50" height="50" relative="1" as="geometry">
            <mxPoint x="227" y="366" as="sourcePoint" />
            <mxPoint x="259" y="475" as="targetPoint" />
          </mxGeometry>
        </mxCell>
        <mxCell id="4ikW2BazAHk21ai5Y3Cd-78" value="" style="endArrow=classic;html=1;rounded=0;jumpSize=2;dashed=1;strokeColor=#322BFF;exitX=0;exitY=0.75;exitDx=0;exitDy=0;" edge="1" parent="1">
          <mxGeometry width="50" height="50" relative="1" as="geometry">
            <mxPoint x="696" y="436.5" as="sourcePoint" />
            <mxPoint x="406" y="495" as="targetPoint" />
          </mxGeometry>
        </mxCell>
        <mxCell id="4ikW2BazAHk21ai5Y3Cd-79" value="" style="endArrow=classic;html=1;rounded=0;jumpSize=2;dashed=1;strokeColor=#3C26FF;exitX=0.25;exitY=1;exitDx=0;exitDy=0;entryX=0.867;entryY=-0.013;entryDx=0;entryDy=0;entryPerimeter=0;" edge="1" parent="1">
          <mxGeometry width="50" height="50" relative="1" as="geometry">
            <mxPoint x="448" y="384" as="sourcePoint" />
            <mxPoint x="350.73" y="476.61" as="targetPoint" />
          </mxGeometry>
        </mxCell>
        <mxCell id="4ikW2BazAHk21ai5Y3Cd-82" value="" style="endArrow=classic;html=1;rounded=0;" edge="1" parent="1">
          <mxGeometry width="50" height="50" relative="1" as="geometry">
            <mxPoint x="767" y="422" as="sourcePoint" />
            <mxPoint x="767" y="452" as="targetPoint" />
            <Array as="points">
              <mxPoint x="767" y="422" />
            </Array>
          </mxGeometry>
        </mxCell>
        <mxCell id="4ikW2BazAHk21ai5Y3Cd-84" value="" style="endArrow=classic;html=1;rounded=0;entryX=0.524;entryY=0.941;entryDx=0;entryDy=0;entryPerimeter=0;" edge="1" parent="1">
          <mxGeometry width="50" height="50" relative="1" as="geometry">
            <mxPoint x="802" y="400" as="sourcePoint" />
            <mxPoint x="852.1199999999999" y="399.97" as="targetPoint" />
          </mxGeometry>
        </mxCell>
        <mxCell id="4ikW2BazAHk21ai5Y3Cd-85" value="FastAPI" style="rounded=0;whiteSpace=wrap;html=1;fillColor=#e3c800;strokeColor=#B09500;fontColor=#000000;" vertex="1" parent="1">
          <mxGeometry x="859" y="390" width="50" height="20" as="geometry" />
        </mxCell>
        <mxCell id="4ikW2BazAHk21ai5Y3Cd-86" value="" style="image;sketch=0;aspect=fixed;html=1;points=[];align=center;fontSize=12;image=img/lib/mscae/Docker.svg;" vertex="1" parent="1">
          <mxGeometry x="371" y="535" width="107.32" height="88" as="geometry" />
        </mxCell>
        <mxCell id="4ikW2BazAHk21ai5Y3Cd-88" value="" style="strokeWidth=2;html=1;shape=mxgraph.flowchart.annotation_1;align=left;pointerEvents=1;direction=west;dashed=1;" vertex="1" parent="1">
          <mxGeometry x="899" y="383" width="94" height="492" as="geometry" />
        </mxCell>
        <mxCell id="4ikW2BazAHk21ai5Y3Cd-89" value="" style="strokeWidth=2;html=1;shape=mxgraph.flowchart.annotation_1;align=left;pointerEvents=1;dashed=1;fontColor=none;labelBorderColor=#0D0DFF;noLabel=1;textShadow=1;fillColor=#121AFF;strokeColor=#2212FF;" vertex="1" parent="1">
          <mxGeometry x="37" y="250" width="50" height="290" as="geometry" />
        </mxCell>
        <mxCell id="4ikW2BazAHk21ai5Y3Cd-90" value="" style="shape=image;verticalLabelPosition=bottom;labelBackgroundColor=default;verticalAlign=top;aspect=fixed;imageAspect=0;image=data:image/jpeg,/9j/4AAQSkZJRgABAQEAYABgAAD/2wBDAAoHBwkHBgoJCAkLCwoMDxkQDw4ODx4WFxIZJCAmJSMgIyIoLTkwKCo2KyIjMkQyNjs9QEBAJjBGS0U+Sjk/QD3/2wBDAQsLCw8NDx0QEB09KSMpPT09PT09PT09PT09PT09PT09PT09PT09PT09PT09PT09PT09PT09PT09PT09PT09PT3/wAARCADcAYgDASIAAhEBAxEB/8QAHwAAAQUBAQEBAQEAAAAAAAAAAAECAwQFBgcICQoL/8QAtRAAAgEDAwIEAwUFBAQAAAF9AQIDAAQRBRIhMUEGE1FhByJxFDKBkaEII0KxwRVS0fAkM2JyggkKFhcYGRolJicoKSo0NTY3ODk6Q0RFRkdISUpTVFVWV1hZWmNkZWZnaGlqc3R1dnd4eXqDhIWGh4iJipKTlJWWl5iZmqKjpKWmp6ipqrKztLW2t7i5usLDxMXGx8jJytLT1NXW19jZ2uHi4+Tl5ufo6erx8vP09fb3+Pn6/8QAHwEAAwEBAQEBAQEBAQAAAAAAAAECAwQFBgcICQoL/8QAtREAAgECBAQDBAcFBAQAAQJ3AAECAxEEBSExBhJBUQdhcRMiMoEIFEKRobHBCSMzUvAVYnLRChYkNOEl8RcYGRomJygpKjU2Nzg5OkNERUZHSElKU1RVVldYWVpjZGVmZ2hpanN0dXZ3eHl6goOEhYaHiImKkpOUlZaXmJmaoqOkpaanqKmqsrO0tba3uLm6wsPExcbHyMnK0tPU1dbX2Nna4uPk5ebn6Onq8vP09fb3+Pn6/9oADAMBAAIRAxEAPwD2SiiigBaKSigAooooAKKKKACiiigAooooAWkoooAWkoooAKKKKACiiigApaSigBaSiigAooooAWikooAKKKKACiiigAooooAWkoooAWkoooAKKKKACiiigAooooAKWkooAWkoooAKKKKACiiigAopaKAEooooAKKKKACiiigAooooAKKWkoAKKWkoAKKKKACiiigAoopaAEopaSgAooooAKKWigBKKKKACiiigAooooAKKWkoAKKWkoAKKKKACiiigAooooAKKKWgBKKWkoAKKKKAFopKKAFopKKAFpKKKAFopKKAFopKKAFopKKAFpKKKAFopKKAClpKKAClpKKAFopKKAFpKKKACiiigBaKSigBaKSigApaSigApaSigBaSiigBaKSigBaKSigBaKSigBaSiigBaKSigBaKSigBaKSigAoo4o4oAWijijigBKKOKOKACijijigAoo4o4oAKKOKOKAFpKXik4oAWkpeKTigAoo4o4oAKTIpGYLkkgADJJ6CuQuPEGp67fSWfhtVSGM4ku5Bx+Gen5Z+la0qMqt7bLd9EZVKsae+76dTsc8UZrkD4Z1/bv/4SKXzeuPm25/P+lFl4h1DSNQjsPEaLtk4julHyn6+38u9a/VuZP2clJroZ/WLNc8WrnX5opAeBS8VynSFFHFHFAC0UcUcUAJRRxRxQAUUcUcUAFFHFHFAC0lLxScUALSUvFJxQAUUcUcUAFFHFHFABRRxRxQAUtJxS8UAFJS8UnFABRRxRQAUUtFACUUtFACUUtJQAUUtFACUUtFACUUtFACUUtJQAUUtFACUUUtAHOeOb2Sy8NTCIkPOwi49Dkn9Bj8ar6lA3hvwG0dkxjlREDSLwSzEbjn1OTU/ju0e78NyNGMtBIsp+nIP5Zz+FQ61Ode8BvNaIZGkRGZFGSCCNwx7YNehRt7On25tfwscNW/PPvy6GdaS+INCtIbtC2pWEqLIUOS6ZGfc/lke1al3PZeLvDF2YVO+JSwVx80bgZ/UfzrJtLzXdds4bLTY2sbSKNY3uXBBbAwcd/wAvzrVksbTwf4XvCsjPJKpBdzgyORgYHYe3sa1qpKSbt7S+lv16GdNtp2vyW1v+hb8HXz6h4atnlYs8eYmY9TtOB+mK3KwfBVm1n4YthICGlLS4IwQGPH6YrergxFvbS5drs7MPf2Ub9gooorE2CijNFABRS0UAJRRS0AJRRS0AJRS0lABRS0UAJRS0UAJRS0UAJRS0lABRS0UAJRS0UAJRS0UAJRRRQAtFFFACUUUUAFFFFABRRRQAUUUUALSUtJQAtJS0lABRRRQA10V1ZHUMrDBBHBFcfJpGreGLx7jQ1+1WUh3PbMeVPt6/Uc/WuxI5o28VrSrOnfqnumZVKSqWezWzOOHjq4d2gj0S4a6XhowxO36jGaLfRNU8R30d54iUQ2sXMdmp6/X0Hr3PtWUdV/sbx1fXLqTAZTHNtHRTjB/P+td1NqdrFpUmoLKslukfmblPDD2/lXdWTocvsoW5lvu9ei7HHS/fX9pK9nttt3LeQi5JAUfgKRHV1yjKw9VOa4iw0i78Yg6jq9zJFaMx8m3iOBjp9AP1PqKbfaAmiXDyaBqLrewJ5r2ruGZkHU47/Q5/CsfqsL8jn73povma/WJ251D3fXX7ju6Ss7QdWXW9Jiu1XaxJWRR/Cw61n+K9ZubFbew00Zv7xtqH+4M4z/8AX7c1zxoTlU9l1N5Voxh7Tob7SRoQHdVJ7EgU6uQi8BWjQGXVb24muCN0kgcBV9+QT+JqrYXsvhq+tUW9F7ot22yOTOfLOcfhgnnt+VbfVoTTVKd36W+5mTryjb2kbL1/M7sdKKB0orkOoKKKKACiiigBaSlpKAFpKWkoAKKKKACiiigAooooAKWkpaACkpaSgAooooAKKKKACiiigAooooAKKKKACiiigAooooAWkoooAKKKKACiiigAoPSig9KAOL0i2ivPGXiCC4jWSKRQGVhwfmqLWfBaWOn3c+nXVyqKu9rYnKtjn8cdfwq1oH/I9a59B/6FXWkAjBGc16FXEVKNROL6R/JHDCjCtB8y6v8AM4uL+0b3wxpV3oFwwks4/Lkt1Iw5AwcjoT3wfWrui6Omg2lzq+ryCS+dC0rsc7Af4Qe5PH16VFP4Wv8ATrx7nw5erbiQ5aCT7v8AI8fUUxvDWta1Kg17Ul+zKcmGDjd+QAH15NaOUJJ2mlF7/wA3p5majNPWLcl93qZfhnQNS1DSvtNtqs1jE8jbY0Bw2OM8EVLJZTeH/Fml3GpXr3cT5UTSZ+U4IxyT03A/jXdQW8VrCkMEYSONQqqvQAdqraxo9trVi1tdLxnKuOqH1FZ/XnKo+b4XdbK9jT6ny00o7o5jUND8QXeoS2H22R9NuJPNeZmHyj+7jr9AOKZ4utLWx0jTNFsUAlacFEzk9wSfck/zqxHpHivT4/s9lqdvLAOFaX7yj8Qf51d0Xwu1penUdUuTeX5+6x+6n0z1Pv27Vp7VQtJzTS2S6vuzP2bleKi03u30XkdGowgB6gUtA6CivLPSCiiigAooooAKKKKAFpKKKACiiigAooooAKKKKACiiigAooooAKKKKACiiigBaKSigAooooAKKKKACiiigAooooAWkpaSgBaSiigAooooAKD0oo7UAcdaONL+Il5HNhUvow0bHoTwcfnkfhXWTTJBC8srBY0UszHsBWZ4g0CHXLZQW8q5j5ilAztPoR6Vy+rXPiS10a4sdQtVlgK4N2hz8oI6n/EV3qnHE8tnZ6Jr9UcTnKhzJq61a/yZbjv9d8VTSNpUg0/T0basp+8+P1P4YA96Wf8A4STw0punuxqVov8ArVbOQPXnkfUH6itTQvOHhzSRpwi8sovnFu397HvnNaTecZbv7Z5X2Dy+PXGPmz+FOdZRk4KK5V06/fvcUaTlFScnzd+n/DD9Nv4dUsYru3OY5BnB6g9wfcGo9V1Iadbgqu+aQ7Y09TXNeCWvF8M3Bs0Vm+1Hyw/AxgZ/rV4tctr9l/aaorDOwL074/Ws5YeMKsle6V/UuNdypxfV/cWEsdYuV82a+MLHoi9vripLXUbq0u1tNSwS/wByUd62BWN4n2/ZrfH+t835cdf89KiE/aS5JL/gFyj7OPMmbY6CigZ2jNFcx0BRRRQAUUUUALSUUUALSUtJQAUUUUAFFFFABRRRQAUtJRQAtJRRQAUUUUAFFFFABRRRQAUUUUAFFFFABRRRQAUUUUAFFLSUAFFFFABRRRQAUHkUUUAJio5oY54nilUNHIpVlPcGpaDR1uJq+hxMVnrnhOV0sIP7Q052LKmfmT+oP0zn2ouZfEfiVTZiy/s21c4leTqR/M/T9a7WjFdf1vXmcVzd/wCtDm+racqk7dirpmnQ6Vp8Nnb/AOriGMnqT3J9yeaj1TTf7QgXa2yaM5R/Sr9HauZTlzc3U35I8vL0MJdQ1a2Xy5rAzMON69DS2unXd7erealhfL/1cQ7fWtulrT238qsSqV93cO1FHaisTUKKKKACiiigAooooAKKWkoAKKKKACiiigAooooAKKKKACiiigAooooAKKKKAFopKKACiiigAooooAKKKKACiiigBaSiigBaSisfxNfXNnp8EVk/lXN7cx2scuAfL3HlsHqQoOPfFAGxRWRp9jBYaiUTVrqeUR4e3uLrzSeh3bTyD9MDmovtbv4tiguLeaJhbymFhcZjdQy5JQd+mPTmgDcornNc1PU7XWNNhtbUmGScqP3yjz/3bHaQR8uCM/hTNa1Weyl0Ke7Mlor3LC4ijYyZHltgHaPm5welAHTUVzFtr63fia7e2mnks4NMEhjZGjG8O2SFYDnAAzWh/bqf2bpN35DY1GSJFXcMx71Lc+uMUAa9FcrHqd9b69rqWljNfCKWN2HnBAi+Uvyrnqx5OOB710Vhew6lp8F5bEmGeMSISMHBHegCxRTZJEhjeSRgqICzMegA61yvhbUr2a/Iv5ZHXUrYX9uj9IhuIKD2ClD+JoA6yisSXXLmW9uoNK0x70WjbJpDMsa78ZKLnO4gEZ6DnrUPiXUtRs7a1a0tmVXngDP5qg5LgGPGD16E+9FgOh7UtUre4vJLKSWeyEVwu7bCJg27HT5sYGf0ql4euftJ1JmimimW8ZZUkm80Btq/dPZcY4+tAGzRXOf8JYxgN/8A2fJ/ZHm+X9r80Zxu279nXZnvnOOcVbvNbni1Z9Ns9Pe6uFgWfPmhE2liOSe/HHr+FAGxRWGfEsX/AAj0OqLbylpnEK25IDeaX2bSTwMNnn2q/p9zezmQX1gLQrjaVmEgfPXnAIx7igC9SUUUALSUUUAFFFFABRRRQAUUUUAFLSUUALSUUUAFFFFAC/jR+NJRQAv40fjSUUAL+NJ+NFFAC/jR+NJRQAv40fjSUUAL+NH40lFAC/jSfjRRQAtZXiDTZtSsI/srIt1bTJcwFzhS6nofQEZGfetSigDm7W1vb7xRa6lPpS2CwQSJKzSI7ys23GNvUAKeT69KS5OrP4ihv00aRo4IJYAPtMYLbmUg9eny9/WuloxQBja5aXc76bd2cAmls7jzWhaQKWBRlOD0yN1RXtpfahd6FdfZfJNvcNJOjSAmMFGXqOD1HSt6igDFn0y4n8TXNwQFtZdNFsJM5IfexPH0IrKt7DWZbLQ7GbT1hTTbiEyymdSJFRSMqBzjoecV19FAHNldX07VtXuLbTVuo7yRGgInVcMI1XLZ6Lx2yeOlamg6a2j6FZ2DOHeCIKzAcFupx7ZrQxRQBleJLe8vNDuLTTwDNcYiJLY2IxAdvwXNZ8vhuSwv9Lu9Omurg202x0nuCwWFlKttB9MKce1dLRQBzsUWp6Je6gttp/263u52uYmSZUKMwGVbd2yM5GevSrmvWV1qGkRi3jQ3MU0NwImfAYo4Yru/DGa1qKAKMd1ePp8k0mnOlwCdtv5yEt/wLoKzNCTU7W/vftOltFDeXTT+Z56NsBVRggHP8Pb1roaKAOMOk6ufDo8NiyXyt3lG+81dnk7852/e3Y4x0zzmt6GynTxTc3hQfZ3s4olbIyWV3J4+hFatFAHOWenXNp4VNndaZHes00pktmlXDI0rMDk8E4IOOKf4b066sru9kNvJZWEgQQWkk3mlWGdzdSFzkDaD2zXQYo6UAL+NJ+NFFAC/jR+NJRQAv40fjSUUAL+NH40lFAC/jSfjRRQAv40fjSUUAL+NH40lFAC/jRSUUAFFFFABRRRQAUUUUAFFFFABRRRQAUUUUALSUtJQAUUUUAFFFFABRRRQAUUUUAFFFFABRRRQAUUUUAFFFFABRRRQAUUUUAFFFFAC0lLSUAFFFFABRRRQAUUUUAFFFFABRRRQAUUUUALRSUUALRSUUALSUUUALRSUUALRSUUALRSUUALSUUUALRSUUAFLSUUAFLSUUALRSUUALSUUUAFFFFAC0UlFAC0UlFABS0lFABS0lFAC0lFFAC0UlFAC0UlFAC0UlFAC0lFFAC0UlFAC0UlFAC0UlFABxRxS0UAJxRxS0UAJxRxS0lABxRxS0UAJxRxS0UAJxRxS0UAJxRxS0lABxRxS0UAJxRxRS0AJxRxRS0AJxRxS0UAJxRxS0lABxRxRRQAcUcUtFACcUcUtFACcUcUUtACcUcUUtACcUcUtJQAcUcUtFACcUcUtFACcUcUtFACcUcUtJQAcUcUtFACcUcUtFACcUUtFAH//2Q==;clipPath=inset(20.24% 38.67% 35.71% 35.67%);" vertex="1" parent="1">
          <mxGeometry x="287.76" y="585" width="83.24" height="80" as="geometry" />
        </mxCell>
        <mxCell id="4ikW2BazAHk21ai5Y3Cd-93" value="" style="shape=image;verticalLabelPosition=bottom;labelBackgroundColor=default;verticalAlign=top;aspect=fixed;imageAspect=0;image=data:image/jpeg,/9j/4AAQSkZJRgABAQEAYABgAAD/2wBDAAoHBwkHBgoJCAkLCwoMDxkQDw4ODx4WFxIZJCAmJSMgIyIoLTkwKCo2KyIjMkQyNjs9QEBAJjBGS0U+Sjk/QD3/2wBDAQsLCw8NDx0QEB09KSMpPT09PT09PT09PT09PT09PT09PT09PT09PT09PT09PT09PT09PT09PT09PT09PT09PT3/wAARCADcAYgDASIAAhEBAxEB/8QAHwAAAQUBAQEBAQEAAAAAAAAAAAECAwQFBgcICQoL/8QAtRAAAgEDAwIEAwUFBAQAAAF9AQIDAAQRBRIhMUEGE1FhByJxFDKBkaEII0KxwRVS0fAkM2JyggkKFhcYGRolJicoKSo0NTY3ODk6Q0RFRkdISUpTVFVWV1hZWmNkZWZnaGlqc3R1dnd4eXqDhIWGh4iJipKTlJWWl5iZmqKjpKWmp6ipqrKztLW2t7i5usLDxMXGx8jJytLT1NXW19jZ2uHi4+Tl5ufo6erx8vP09fb3+Pn6/8QAHwEAAwEBAQEBAQEBAQAAAAAAAAECAwQFBgcICQoL/8QAtREAAgECBAQDBAcFBAQAAQJ3AAECAxEEBSExBhJBUQdhcRMiMoEIFEKRobHBCSMzUvAVYnLRChYkNOEl8RcYGRomJygpKjU2Nzg5OkNERUZHSElKU1RVVldYWVpjZGVmZ2hpanN0dXZ3eHl6goOEhYaHiImKkpOUlZaXmJmaoqOkpaanqKmqsrO0tba3uLm6wsPExcbHyMnK0tPU1dbX2Nna4uPk5ebn6Onq8vP09fb3+Pn6/9oADAMBAAIRAxEAPwDzWiiivROMKKKKACiiigAooooAKKKKACiiigAooooAKKKKACiiigAooooAKKKKACiiigAooooAKKKKACiiigAooooAKKKKACiiigAooooAKKKKACiiigAooooAKKKKACiiigBR1ooHWigBKKKKACiiigAooooAKKKKACiijn2oAKKazhRywH1NN8+L/non5ikOzJKKjE8Z6SJ/31TwwPQg0XAWijPpRTEFFFFABRRRQAUUUUAFFFFABRRRQAUUUUAFFFFABRRRQAUUUUAFFGaQuq/eYD60DFoqPz4v+eifnR9oi/56J+dK6CzJKKasqN0dT9DS5pgLRRRQIKKKKACiiigAooooAUdaKB1ooASiiigAooooAKKKRmCqSxwB3oGLmlQNJKsMSPJM5wscalmb6Ac12nhP4Yal4hCXWpM+naeeVyP30o/2Qfuj3P5V69oXhfSfDcHl6XZRwkj5pfvSP9WPJrGVVLYpQfU8c0b4V+I9WCyXMUWmQH+K4OZMeyD+pFdvpvwZ0S2CtqNzeXz9xu8pD+C8/rXoVLWLqSZoopGDZ+BvDNgB9n0OxB9XiDn82zWmumWCLtWxtVX0EK4/lVuipuyijJomlzAiXTbNwext1/wrNuvAfhi7GJdDshnvHHs/9BxXQVnz67plsxEt7ECOCAcn9KceZ6IicoQ1k7HJ33we8OXO42pvLN+o8qbcv5NmuQ1f4OaxZhn0u6g1BB/A/wC6k/DsfzFenSeMNLTO15ZP92M/1qFvG1jn5YLg/gB/Wto06/RM5ZYzDLeaPn+/0+80m48jUrSa1l/uypjP0PQ/hUBr3y+8TaVqdube+0xriA9UlVWFeea/4Q0mbdN4fNxayHn7NOQ0Z/3W6j8c1vGFTrEz+u4ZvSaOGoqS4tprOYxXEbRuOx/pUdD0N001dBRRRQMKKKKACiiigAooooAKKKKAAUU6CGS5mWGCNpJD/CozXYaF4M05ds/iGa4l7/Y7UbV/4E+cn6DH1pqMnsrmdStTp/HKxyNnaXOpXQttPtprqc/8s4ULEfX0/Gu70X4O6zehZNWuYNOjP/LNf3sv/wASPzNdvp3iTS9GtRa6Xoy20A/hjIXP17k/WrQ8dR/xWD/hIKzlTxD2iQsfhFvMzrD4PeG7YKboXl6w6+bMVU/guK3bXwN4ZsgBBodgCOheIOfzbJqGPxtYsAJLe4Q+wBq7B4o0u4dUW4ZXYhQrIRkmuaVKsviTOmGMw09IzRbTRtMjGE06zUe0C/4U46XYEYNhakf9cV/wq1RWF33OuyMyfwxod1/r9G0+T3a2T/Csa9+F/hW9Bxpgtn/vW8jIfyzj9K6yimpSXUOVHlepfBNMM2kavIp7R3UYYf8AfS4P6Vwuu+C9d8NgvqFixtwf+PiA+ZH+JHK/iK+jqCAylTyDwQe9aRryRDppnypkHkHg9MUte2eKfhPpur77nRymnXp5KgfuZD7r/D9R+RryDVtG1DQb42eqWzwTdVzyrj1U9CK6oVFIwlBxKVFFFaEBRRRQAo60Ug60UAFFFFABRRQFZ3VI0Z5HIVEUZLMeAAPWgY6KKS4njggjeWeVgscaDLOT0AFex+BvhdDpJj1LXkjuNQ+8kB+aOD/4pvfoO1X/AIfeAYvDNst9fqsmrzL8x6iBT/Av9T3rtq5Z1L6I0jGwUUUVkWFFFFABRR2pM0ALjNcV4t0n7NcC+hUCOU4kA7N6/jXa5qC7to7y1kgmGUkXaa1o1XSmpHLjMMsRScH8jy00CrF7aSWF5Lby/ejOM+o7Gq9fQRkpK6PiZxcG4vdBQeaKMUySC9sbfUIPKuow69ieq/Q1xmseHZ9MzLFma2H8XdfrXd0HngjOeDxWNSkpo7sLjqmHfddjy2iur1rwsH3XOmrhurQjofdf8K5QgqxDAgjgg9q4JwcHZn0uHxFOvHmgwoooqTcKKKKACjNFCgsyqgLOxwqgZJPtQAhOK19I8O3Op7ZpcwWv94j5n/3R6e9a2i+FVi23GpqHkHKwnlV/3vU+1dNXVTw99ZHj4zM1D3KO/cq2On22mw+XaxBB3b+Jvqas0YorsSS0R4E5ym+aTuwooop2ICuk8H6V9ouG1CZcxxHbFnu3dvwrBtLSS+u4rWH78pxn0Hc16bZ2sVlax28K4jjUKK8/H1+SHJHdntZPg/a1PayWi/MmHelpKK8Q+uFooooAKKKKACs3W9A0/wARae1lqduJYjyp6Mh/vKexrSpKd7bAz508X+D7zwjqPlTEzWcpP2e5xgP/ALLejD9etYGa+nNZ0ez17S5rDUIvMglGD6qezA9iK+dvEeg3PhrWptOu/mMfzRy44lQ9GH+eua7KNXm0ZzVIW1MyiiitzIUdaKB1ooASiiigAzXqXwk8H78eJL+MHOVskYdB0Mn1PQe1cD4Z0J/EviK00xMiORt87D+GIfeP49Pxr6St4I7W3jggQJFEoRFUcKBwBWFadvdRpBdR9FFLXOahRRSdeBQIWsrW/E2k+HY9+qXsULEZWLO6Rvoo5rhfHHxS+ySy6b4ckVpVykt7wQp7hOxPvXk888t1O89xK8s0hy8kjFmY+pJ61rCk5asiU7aI9Y1L41W8bMulaVJKB0kuZAg/75GT+tc/P8YfEUr5ijsIV9FhLfqTXCUVsqcV0I5md9b/ABj8QxH99b6fMPeNl/ka2LP42KcC/wBGYerQT5/Qj+teU0UOlEamz1jV/G3h/wAQmGW1mlt7kfKyXEe3I+vI61AuGUFcEHoQeDXl1XdP1i801v8AR5Ts7o3Kn8K66FX2ceV7Hj43LvbydSDsz0XFFZGl+I7XUcRyYgn/ALrH5W+h/pWxjkjvXbGalqjwKtGdJ2mrCUtFFUZB61i654ej1NTNBiO7Hfs/sf8AGtqipnFTVmbUa06MuaDPL5opYJnhmQpIhwysMEUzNega1okOrQ9o7hR8kn9D7VwlzbS2c7w3CFJF6g/09RXn1KTgz6jCYyGIjpv1RFRSVPZ2U+oXK29sm5z1PZR6k+lZpN6I6nJRV2Mt4Jbu4SC3QySv0UV3OieH4dJXzJMS3ZHzSEcL7L/jU+kaPBpFvsj+eZh+8lPVv8B7VoV3UaCjrLc+dx2Yur7lP4fz/wCAFJS0V0HlCUUtAUsQADk0CEox36AdSTwPxrJ1TxJaadujjxcTj+FD8q/U/wCFcjqOtXupsfPlPl9o04UfhWM68Y6LU9HDZbVre9LRHpmj+MfD/h6S4nvbl5rk/IkdvGXIXuc9P1pL342Qrkafo0j+jTzBf0AP868morzakVUk5SPpcNBYekqcTvrj4ya/KcQW2nwD2jZz+pqOH4weJI3DSJYSr/daEj+RrhaKn2UexrzyPVtO+NinC6ppBHq9tLn/AMdb/Gu30LxpofiLCWF6vnn/AJYSjZJ+R6/hXzlQCQwIJBByCOoNRKhFlqrI+qqK8g8D/FGa1lj07xFKZbdvlivG+9GfR/Uf7XavX1YMoZSCpGQRyCK5ZwcHZm8ZKWwUUtFQUJXHfEvwsPEPh157ePOoWIMsJHV1/iT8QMj3FdlSd6cZWdxSV0fKgORnrmlrpPiBoI8O+LbqCJdttP8A6RAB0CseR+BzXN16SfMrnG1Z2AdaKUdaKYhKKKbISsbFfvY4+tFxnsHwX0QQ6XeazKvz3T+TEfSNOuPq2fyr0yszw3pi6N4b06wUY8iBFb/exk/qTWnXDJ3ZukFFFFIArzD4o+OXtN+gaVLtmZcXkyHlAf8AlmD6kdT6cV3XifWl8PeHL3UiAWhj/dqf4nPCj8zXzZLLJPNJNM5klkYu7seWY8k1rShzO5M5W2GjgcdKKKK6jEKKO1ISFIB6k4A7mgBaKnk0+9hh86WwvI4v77wMF/PFV8jbuyMetJajsLRSsjpjejpnpuQrn86SmAnofSui0bxRJbbYL7MkI4WT+JPr6iueoqoycXdGNahCtHlmj1CORJo1kidXjYZDKeDT68/0bXJdJlxzJbsfmj/qPeu6tbmG9t1nt3Dxt39D6H3rvp1VNeZ8zjMFLDvun1JqKMUoFaHEJis/V9Hg1a32yYSZf9XJ3B9D7Vok4rU0Xw9PrDCSTdFaA/f6F/Zfb3rOrKEYvnOnCxqyqL2W55lpPg3Wdb1ltOtbfaYyPOuH/wBVEvrnv7AV6zpPwzstKthEl5MxPLuEUFz/AJ7V19pZwWFusFtGEjXoB/Op68V1pc14vQ+w9gqlNRqq/c51PBWnj78ly/1fH8hU6eEdITrbs/8AvyMa26ByaTr1H9pkxwdCO0EedeI7e3s9Za2tIljjjRcgep5rNq5rc32jX75+3mlfy4/pWTqOoW+l23nXLHn7iD7zn2/xr2qT5aScn0Pk8RH2mIlGmuvQnnmitYGmuJBHEvVm/p6muN1jxRNfBoLPdDbdCc/M/wBT2+lZ2qatcatP5k52ov3Ix91B/nvVIVz1a7lotj2sHl0aXv1NX+QUUUVznphRT7a3uLxitpbT3BXqIYmfH5Cklilgl8qeKSKT+5IhVvyNK47MbRQFZs7EdyOTsUtj8qUxyKMtDKoHdo2A/lRcLMSikBDDIII9qWgQnavU/hT41YSR+HtSlLAj/QpXPPvGT/L8q8tpUeSGVJYXKSxsHR1PKsOQfzqZxU1YqMuVn1TRWT4W1oeIfDVjqXAaaIbwOzjhh+YNa9ee1Z2OtO6uFFFFIZ5z8ZdIFzoFpqaL89nNscj+4/H6MB+deNV9K+KdPGq+FtTsjyZbd9v+8BkfqBXzSp3KD6iuzDyvE5qqs7jh1ooHWiugyENXdDtft3iHS7U4xNdxqc9MbgT/ACqka1vCMiReM9FklYKiXiEk9utKWw1ufShopAd3I5FLXCbhRRSUAecfGm+MOg6dZKf+Pi4Mje4Rf8WFeOjpXpXxqulk1XS7dWBMULsQOxJH9BXmorrpK0TGTTegUUUVoSBIAJPQc16TpkVp8O/BFprktrFca9qmPs4mGRChGeB2AGCcckmvM5f9S/8AumvS/itmXRvC88XNs1uwUjpkqh/l/KsqmrSNIbNmTB8WPE8Vz5s1xb3MefmgeBQrD0BHIpvxBtdEntLDXNCe3iN8ubizjdS0TkZztHTuD71x3FWrrR7+10qDUbizkis7n/UzNjEnfjvTcIp3WglJvc7v4xf8hDRB/wBOR/mK87r0T4w/8hHRP+vE/wAxXndFL4Qn8QUUUVoQGKvaVq0+k3G+E7o2+/GTw3/16o0U02ndEzhGcXGWqZ6XYahBqVqJ7Zsr/Ep6qfQ1YZgvLYArzfS7+5sb+I2StJM7BRCoJ80+mO9e6+G/DJhjivdUi23RUMICdwhPue5roeMjGOu54dTKJuolD4fyKuheFmuit1qSFYuqQHq3u3t7V2SoEQKoCqBgAdqWlry6tWVV3ke9hsLTw8bQ37iUtJRWZ0C0hO3JPQDNLWH4k12PTbOWCIhr2WMrGnZCR95vanGLk7IipUjTi5SdjzTWNcg00STyfvJ5mZ44vXJ6n0FcJfX0+o3LT3Tl3b8gPQDtS6lFdw38gv8Ac05OS7c7vce1Vq9Kc29HoedhcNCkudat9f8AIKKKKzOwK3fBXhweK/FEGnSlhaqpmuSpwSg/h/EkCsGvRPgsyjxJqaZAlezHl/g3P8xUVG1HQqCuxviD4kXWm3smmeFFtrDTbNjEjRxKxkI4J54Az+Jq1oXiu28bxT6J4y+yZMZe3vjtiKMO2emecjHB5zXm8yPHPKkgKursGB6ggnNS6fpt5q14tnp1q9zcMCwjTGcDqean2ceUrmdz0P4TBrDUvEyxyJI1vAAsi8qxUvhh6g4zWPb/ABa8TDabiW0uUIGY5LcAH8q0/hRDJbXXieCZCksVoEdT1VhvBFebp/q1+lKMU5O422oqx6J4g07S/Fng6TxVo9otleWr7b62T7rdMnHryDn0rz2vRPAn7j4Y+L7iYlYHVo0yOC3l4/mwFed9qqn1RM+jCiiitCD2P4K3zTeHtQs2ORbXW5fYOoP8wa9HryL4KXSQ3WrwO21pvKKA9yA2f5ivXa4a0bTOqlJNWFopKKxNBR1Gehr5c1C3Fpql5bjpFcSIPwYivqIsqAsxAVeST2r5j12RJfEWpyRHMb3crKfUFjXTh+phWtoikOtFIOtFdZgBq1pTbNYsm7CZf54qqaWOQxTRyDgo4b8jTW5M1eLR7/4W17zAun3T/OOInPceh966kV5OrbsOrEZwQQcV2vh3xGLwJaXrBbgcK56Sf/XoxeGt+8gtDzcszBP9xVeq2OkqlquoppenyXL4LD5UX+83YVcGa4PxXqf27UjDG37i2O0f7Tdz/SubD0fbVFE9DH4r6tRclvsjgvHIkuYoL2QlpDIwc+u7n+lcfXo2qWf9oabPbj7zLlf94civOSCCQwwQcEe9d9eHLLTY4crre0pWb1QUUUVgekFd74e8SaNrHhZfDHiuR4I4SDaXgGfLx0BPYjOPQiuCoqZRUilKx3UfgbwvaSCfU/GdrPZDkxW6jzJB6cEkfgKzPHXiyPxJNbWmmwG30mxTZbRkYJ6DcR24AAHpXMYAPSipUNbtj5tLI7j4n6xp+sX2kvpt3DdLDaFJDGc7TkcGuHooqox5VYlu7uFFFIeKoQtWtM0u+1vUY7DS7dp7mTsOiD+8x7CtTwp4M1Lxfc/6KPIsVbEt26/KPUKP4m/QV7r4c8M6d4W04Wmmw7c4MkrcvKfVj3+nQdqxnVUdEXGNzH8E/D6y8JxfaJSt1qjrh7gjhB/dQdh79TXX0UVzt3d2ahRRRSAKKTPf0rkvEHikkvZ6W/tJOv8AJf8AGrp05VJcsTGviIYeHNNlzxB4nWw32tiVku8YZuqx/wCJ9q4o75JGklZnkc5ZmOSTQqbRTq9mhQjSXmfKYvGTxMtduiKeo6Zb6pb+VcLyPuOByp9q4LU9Ln0q48qcZU/cdfusK9JqC8s4L62aC5QPGfzHuPeqq0edXW5eDx0sO7S1ieYiitPWdDn0iXccyWzH5JB/I+9ZgrhaadmfSU5xqR5o6oStPw5rlx4b1631O2G9ojh484DofvL/AIe+KzaKlq+jLTsei6ro/hPxjdtqum+IIdJuJ/nuLe6UAbu5GSMH6Eg0tnqPhz4c2dzJo98Na16dPLE4XEcI/ljPOASTjtXnOAeoorP2elmyubyO7+GWsWFhda42sahHa/bIFQSSnlmJbJ/XNQp4R8HwANc+NxJEo5WGD5j9Ov8AKuKo+lNw1umHNpZnYeKPF1jPocHh3w1byW2jwHLvJw87Zzkj0zzzyTjpXH0UVUYqJLdwoop8EEt1cRwQjMkrBVxVbibSV2dh4Mie209rlCUkkl3Iw7beAa9l0PVV1bT0mOBKvyyL6N/9frXmdpbJZ2sNvH92NQo9/etvw3qR03VF3t+4mwkme3oa6MThuajpujwcJmPJi22/dk/+GPQ6MZoAya5jxF4mEAez09wZukko6J7D3ryKVKVSVon0mIxNPDwc5sg8U64JJP7OtWygYecw7n+79PWvCbx/Mvrhx/FKx/WvR7mYW1pcTMeEjZsn6f415kTk5PU16lSlGlFQR42ArzxNSdWW2iQo60UDrRWR6YlBGaKKAPQdBuhd6NbvnLKuxvqOK0OmCOvWuT8HXu2aazY8OPMTPqOorrK9KlLngj5HHUnRrtfM6C28W3EWmywTAvPt2xS+n1+lc/RRRToxp3cVuZVsTUrJKbvYAK5LxVo7RStf265if/Wgfwn1+hrraCAylWAYHqCODTqU1NWLwmJlh6nOjy6iuk1nwo8TNPpwLxnkw91+nqPaucIKsVYFWHUEcivOlCUXZn1VHEU60eaDEooNFSbBRRmkzQAuaKaWAIBPJOAO5/Cut8O/DTXtfKSyRf2dZt/y2uV+dh/sx9fzxUuSW40mzkwSzqiKzyOcKiAlmPoB3r0nwh8JJ7wx3niYNDB95bFT87/9dCOg9hzXfeF/Auj+FQJLOEzXhGGup/mkP0/uj2FdJXPOq3ojVRSIra1hs7aO3tokhhjXakca4VR6AVLRRWRQUUUUAFMmmjt4XlmkWOJBud3OAo9SaZd3cFhaS3N3MkNvEu6SRzgKK8J8dePrnxXcta2m+DSY2+WM8GYj+J/6Dt9aqEHJibtudLrvxSttT1NtPst8emn5Tc9DKfXHZP1pUVQBjGMcEV5Viui8PeJDY7bW8Ytbfwv1Mf8A9avSw8lT908XMsLKt+8i9V0O1ox70isrqGUhlYZBHIIpa7z51prcSilxRQIZJGk0bRyorxsMMrDIIrjta8KyW26fTw0kI5MXVl+nqK7OioqU1NanThsVUw8vd27HlXfHeiu91bw3aanukTFvcH+NRw31H9a5DUNEvtMJNxCWj7SR/Mp/wrinSlA+iw+NpV1o7PsUaMUgIPSlzWZ1hRRmigAoo6VJb2815MIrWJppD2UUIG0tWRM2Otdl4Y0RrKM3l0uLiRcKp/5Zr/iadovhhLF1ub0rLcDlVHKp/ia3zXZRo296R4OYZipJ0qT9WJR1oorrPENqbxPdyaVHZxkowXbJKD8zD29KxRRSgEnA6ngVnClCn8Ksa1a9Stbnd7GJ4suxb6P5IPz3DBf+Ajk1xFa/ibUBfaqyxtmKAeWvofU/nWRXDWnzSZ9Pl9H2NBJ7vUUdaKB1orI7RKKKKAJbW4e0uo54jh42BFejWl1He2sdxCcpIMj29q80rd8NawLGc2tw2LeU5BP8Df4Gt6FTkdmebmWF9tDmjujtKKKK9A+XegUUUCgBaqXuk2eo83UCu398cMPxFW6WpaT3NIVJwfNF2OXn8FRMSbW7dP8AZkXd+oqmfBd//Dc2x+u7/Cu0orF4eDO6OaYiKte5xsfgq9ZwJLy2jQnlgrNj8K6jRvhhod06/b/Eckx/55RRiD9WyatYzSMgbtWc8LGS912N6Wb1Yv3kmd3ofg3QfD4D6Zp0KS/893HmSf8AfR5/Kt2vLra8u7Ij7LcyxAdlbj8ula9r4x1GHAuI4rgepG1v0ringqi21PTpZxRlpNNHc0tZWia7Hray+XBJEYsBi2CM+gNatccouLsz1ITjUjzRd0FFFJSKFqpqmqWei6fJe6hOsFvGOXb17ADuT6CqXiPxNp3hfTjdajLy3+qhTl5T6KP69BXg/inxbqPi2/E943lwRn9xbIfkiH9T6k/oOKuEHIUpJF3xr46vPF115ShrfTImzFb55Y/3n9T7dBXL9KAKWutRUVZGLbYUUUUxG3oHiGTS3EFxmS1Y9O8fuP8ACu5iljniWWF1kjcZVlOQa8rrT0bXJ9IlwPnt2Pzxn+Y9DW9Kty6PY8zG4BVffp7/AJnodB6VXs7231C3Wa1kDoeo7qfQjtViuxO+qPnpRcHyyEopTSUyRKOxB6elLSUBtsZd54c029JZrcRuf44vlP8AhWRP4J6m3vuPSRP6iuroqHRg90dVPHV6eil+pxR8F346XNr/AOPf4U6PwXeFh5t3Ao9VUn/CuyNFQsNA2/tXEd19xz1r4NsoubqWa4PoTtX8hW5BbQ2kXl28SRp6KMVLSGtY04x2RyVcVVq/HJhSUtJVnOFFFFMQVmeINUGl6cwRv9ImBWMDsO7Vdu7uGwtnuLhsRp27sfQV59qOoS6nePcTcFuFUdFHYCuevV5FZbnp5dg3WnzyXuoq0UUVwH04o60Ug60UAFFFFABQaKKAOp8O+IcBLO+fpxHIT+hrqO+K8troNG8TSWYWC8BlhHAb+JP8RXVRr20keLjst5m6lLfsdlQKZBPFdQiWCRZIz0ZT/nFSV2J3PBlFxdmFLSUtAgooooGKKKBRQAVNZ2c2o3S21su6RupPRB6mpNN0241a48q2X5R9+Qj5U/xPtXfaXpNvpFt5VuvzH78h+859TXHiMUqa5Y7nqYHL5Yh80tI/mP0vTotLsY7aHoOWY9WY9Sat0Vk6/wCKNK8MwCTVLtY2YZSFfmkf6KP59K8dtydz6uMVBJLY1upxXDeMfibY+H/MtNN2XupDggHMcJ/2iOp/2R+lcJ4q+KWp68HttODadYsMEK372Qf7TDoPYfma4gDGK1hS6yJlPsWtT1S91q/kvdRuHnuJOrN2HoB2HtVYcUUV0JWMwooopiCiiigAooooAs2GoXGm3AmtZCrfxDqGHoR3ruNH1+21ZQn+quQOYyevuprz6hWKsGUkEdCOK0p1XA5MTg6dda6PuerUGuO0nxdJCFh1EGVBwJR94fX1rrLa6hvIRLbSpIh7qen1Hau2FSMtj57EYSpQfvLQkpKWitDkEooooADSUppKYgooooEJSUtABPABJoASoby8gsLY3Fy+1B0A6t7CqOqeIbTTMxqRPc9kU8L/ALx/pXF32oXGpXHm3MhZuwHRR7CsKtdR0W56eDy2da0p6Im1jV5dXuN8nyxLxHHnhR/jVCiiuFtt3Z9JCEacVGK0CiiikUKOtFA60UAJRRRQAUUUUAFFFFAE9pe3FjMJLWVo2746H6jvXS2PjFCAl9AVP/PSLkflXJ0Vcako7HPWwtKuvfR6Va6haXgH2a5ikP8Adzg/kaskEdjXlnQ5HB9RVyDV9QtQBDeTKB23ZFdEcT3R5dTJ+tOX3no9ArhU8WaqnBljf/ejFSjxlqI/gtv+/f8A9erWJgczymv0sdqSEGTW5pHha51ArLdhre3Pbo7j+grzK28dataT+dEtpvA+UvAG2n1HvTrv4i+KbzhtXljHpAix/wAhmsK2Ik9Kf3nbhMrjF81bXyPfre2t9NtBHEiQQIO5wPxJrD1f4g+HNFDLPqUc0w/5ZW371j+XA/E14Bd6he6g26+vLi5PrNKz/wAzVcKBwAAPauD2N3eTPcUlFWij0LxB8YNTvw0OiwLp8J4818PKR7dl/X61wE00t1O89zK800hy8kjFmY+5NMpa2jBR2JbbEpaKKokKKKKACiiigAooooAKKKKACjFFFABUttdT2c3m20rxOO6nFRUUXtsJpPRnUWPjORcLfwiQf89I+D+XSt+11vTr0DybpAx/gk+Vq84NJW0a8kefVyyjUd46eh6tg4Bxx6ikrzKC+urX/UXEsfsrmtCLxTq0Y5ud/p5iBq2WJXVHDPKJ/Zkmd7SHrXEf8Jfqn96D/v1SHxdqp6PAPpEKr6zAy/smv5HcDk4psrpAu6Z0jX1dgK4CbxDqk+Q17Io9E+UfpWfJJJM26V2c+rHNS8SuiNoZPJ/HI7i88U6da5ETtcyDoIxhfzNc5qHia9v1MasIIT/BH1P1PU1kUVhKtKR6NDL6FHVK78wxRiiisjtCiiigAooooAB1opR1ooASiiigAooooAKKKKACiiigAooooAKKKKACiiigAooooAKKKKACiiigAooooAKKKKACiiigAooooAKKKKACiiigAooooAKKKKACiiigAooooAKKKKACiiigAooooAKKKKAFHWigdaKAEoqSRAsrqOisQKbigBtFOxRigBtFOxSYoASinYoxQA2inYoxQA2inYoxQA2inYpMUAJRTsUYoAbRTsUYoAbRTsUYoAbRTsUYoAbRTsUYoAbRTsUYoAbRTsUYoAbRTsUYoAbRTsUYoAbRTsUYoAbRTsUmKAEop2KMUANop2KMUANop2KMUANop2KTFACUU7FGKAG0U7FGKAEHWinxqGkQHoWAoouFj//Z;rotation=-90;" vertex="1" parent="1">
          <mxGeometry x="892.36" y="575" width="107.27" height="60.21" as="geometry" />
        </mxCell>
        <mxCell id="4ikW2BazAHk21ai5Y3Cd-94" value="" style="verticalLabelPosition=bottom;html=1;verticalAlign=top;align=center;strokeColor=none;fillColor=#00BEF2;shape=mxgraph.azure.github_code;pointerEvents=1;" vertex="1" parent="1">
          <mxGeometry x="153" y="555" width="50" height="50" as="geometry" />
        </mxCell>
        <mxCell id="4ikW2BazAHk21ai5Y3Cd-95" value="" style="shape=image;verticalLabelPosition=bottom;labelBackgroundColor=default;verticalAlign=top;aspect=fixed;imageAspect=0;image=data:image/webp,UklGRox6AABXRUJQVlA4TH96AAAv/8SzELfjuG0kR1L17p73+edxGd3v/uu6Kg02jSQ5qnP50Xj+xFz6t+OokSRHipo9B+H4A7x7r+tyG9u2quxv9+LuLrlLRjn0RR3UQUTu7i4BfK/9v5+TTnFgxYEFpzgIOHAcMKHJVNTzrLaqoSCC1uJgFdQ89ugnPXW6fK6HF0q/95fnvxt9plBfhpyEN+crTm2llTQkQ8CKlfAIrlbErpr9IduKZh8zodmTrKtnPNUayNYKoYQ/ew/874vZSfkzCLIoAa6SK5xk7TA9CWqLbd2hva5b1+2gd8ovJFAvCEhUQEEREQ4oBJBnTBAE/BAABR84IOAHNyi4QEFBwAEHbLDBBhssMCG7m+nq5OIzgissYAPnj2/NOGrbtmGs/+9OL3NEKHDbRhnz4Sv4BJXCHLdidXYfaYLYAa2FtrTveWmjJb8oKgwvM94Sib2SAhMpHkvUP2NwdrsRr53LKA63rT2z02jz13ZjjC0wzkG4sQhGMkmI0LSQSFYFVc4556qjwpX4/+O+9nU/93M/z6kjXmp8vq6I/jujrSVovoo5M3OrnBki2rYfFNxIciRJK+6u9ejpnlPvWfX/D1VGZFVlZt8I94NHRPRfFm07VWstNdUIGm+f3oMRKeXjE/118h/5j/xH/iP/kf/If+Q/8h/5j/xH/iP/kf/If+Q/8h/5j/xH/iP/kf/If+Q/8h/5j/xH/iP/kf/If+Q/8p//PzWkzZAUSfEhKaJmuKSDmZd45WW5jcPL8opoylhc0k3G9Gt9VfU3ZlB97de3X34llbygQyrx8u1fv/qb38rvaRD5jTG8/EoieSlnm8hw0+/+9Gcz/E5+D4bbL5M3l29eJzO5B699dP/Dj+WD9z/54x/0L6pmFreg1V26IZV78NF9mveefqr6N/3VX1Rh1p+MxWu3X86kLtqgmtqa6fv337v7RL9U1f99/a8v/PT/g+Evf/6dcYCWF2veaCqTK3304fffvEfz9Fsxo/711k8R+sc/8QzIDHl9mbZEoXo6DL756st/6bePH33xUOWJWsb/MgaTAcmdX6YhW73//Tdff/XlF49UzPT0megXZnzhv9hMcs5WR1w4F2YLmaImufLJTGQyA+A7lYd8ZLP46l5+5dLMm9S2WD2B+bE8MsNjPj42Vv9tgVi9eXmbuCQbE4Vam8z/MkvQ8Ji8e2jGRwEPqkpsOMz5NpW+HCtpnKse98b/JzT8izl9/MXT7/Tpk//9+y2A0mDxmvMhyiWYSAZNZYvGN5hwfPKvb/XxE3lEePzO//71vyyTZURvWHG8iy8ftobdEM2M0KTCYJ7+1EZwFhRG+dPvfnsJVhhFNWmWOJD/Tyz49sljY2XDz2iyDyIqfwHnxsHLGRDMqhdbUrayxXp79zWZrETMc4Nn3z19BAgeVRRYsWF1yIaTTF9o2eYrzc7g66+e2PGtwsJfcPw3Tm6GP1uK411kSSZMimYrre9hbhB5bPAI8BjgNqpxhcXxwPnLl1fr0CRJWmjCKu0TEICxfvg4BEFL1b/8AfgQSTi1EhvOBZWz1LZQPXVpCgAQhmdP7XCaRYNVKA0J6L+kMhfq7b3jJPLYgYQaAoTSpC6mlkhs89XjwKwy0A6X5HgqPiAqtovQt19JpkUunthwlPwvVlvfE79NwIRz1Ea8QEVULKszCwlJJrx8ErNVanTM3CcaPOIczyTYm9eIF/vSaW7uARU2+VJcAMQJXgaxCaV52fBh62UTv02tvWO2wRZhSfjVceHUKJr1IsmpGv+xsAnYujyEJT9F+5BsONaaipMXSUWNzQQypl3NURJVBHrDaigxxkukqdn9xnmuerJGB2EWp/J4WBiFq+uhl0RzqXrN4ddm8kzC2TnKZGCFUX59YaS2FrEb1qF6zVATyZwmPLQDJ6DkTi3uQq3pz3+yFEa5GEIKJipr969Qj/LYEeAWneJyPACW+NgKWMhWGCVxEWRMgrllJh7Fuk7u5KdWg0sIXE7KRdRaUzForXUBpFgMVq/5hLm1G/5lnqFfYYjzsj8N9CnAW6igBC0SyQsfJPKVRgcUi+FJTJbRSEGwljo25FsXsHjW4k/QoqFmWQujmCrqLnYslarXLH/Eua1hWeaTPRhY6viJjTxzIMHealB0zAMQmAP5B7M64sK53HFFZe3KYMbsRljuXy6U8OSxE7jP1tUEU3uoHLz5w6VPeeTktlBtHnZf04psNnan7BG4DmFyJ7ZFgxwER8BBDthClztjIl89dYdfGz8CaPCiMDrC+jwodgWjY1ACR7L4/W9+TSw4FzlzK6fujqYA28ARYZY0hkduxLJQ0DqC3IBPLqPANejf0sz0RY5iMaeuqV7T+ugWAAbQuQP0znIggXNc5gXHwzRYFwXjy8mLG2SKtSOxGzLfHeZbLdRW7OSLQJA/bC63UYxZbelNFgrlgWBh5JY483bq8ka3hCpNyG7oYMRndiLiBNsU8ERxuQCHGC1bYmKrA4GZv37lomYRqGDpPuhUSQhY3mmlIQifAhKZFgvLstaUKIbHQpUt8Iffv3rbsB9e0khaKDWgdmGxTw6UPbPWuhmC8GVxliUwthBYAhQUJv7wp9++dlFTOzFp1cbK2tHodrYd9Kjs0YVYjEFBCAqMayiYBV/ktduJy5nK1Qv19oBWaezciN0n9jwENOBZkKVDSjPYJ/0vPv7xT4b9+lIGimXtaMLxX2EGy6PA5EQcDXYCBldvLRNI5Dfc15cyTakpn3pDMvscvmXwSYKj4pCBUHL859++9spljG4J2QfNHrEbfut3ioAEpjKX2ueEvbk831MMVL/cASa/8EhcPVkYyVtTuSEY0iRltQ6FTWhulFA7XE+y2bpWh6jdfM2/nuiFNClWVDkCu+G3EUO+4OWO3Z46xK1rQlQUDno51C5bqJz633xFpqiJBTZWmhDR69oQ3m5+IW3M2VKtjVMkYFMwCWQkDGfKOdN8VGeAgVzmbovUlBqaIoULsbuxBEItJZCrJvh4FYvqVhmoRZvJUVNqwBQNeexMXJKWgXFsJVz1BbhuorOPXKCJadUGpqjwiOPfFliFyTgkM5UFaj7cMgu/OKjFxT5q1faviAbb82Dy03gM/CLSxlxu9r4xpuhhJS/gkrExWJglV23NQ9QTg0DD+xVwKUWA3bB+7JvCJt9GNgS4fErk0SUVSaeyhepxT/w28YHqo4spkrZo1UamGJHvHsaO8AqsMQ1mbkzwRWxJfuEVaOoMzNzITYHWD2NpfeYT0pJMkHlAtnGBxN6aUXLVBtVrfhsvfGezjtec3wqMci0hhx3MjYdrjn9brS+bkKBpSHNjhC8QMSZk4mkBzGaKIYyTOJLfC2ySsZhT18yNByyTC/nZxRK2xG0N9cvFBThZyIWTdVqTmUL9+D2plvBtvBBrEskkQFm7ozGTbTzJd5dO1olcGcvaGZxPklEA9BdVIdeyeb26LULvSXxJ8eW5JWA+x3nmFRo0oclrNSrNrbXZFJfx8SUGSacyL99+QININpG8XpIW8kyrtsd8+PZxpEPwFHcC5VTPtx+89pEZXpXrpk9uMls5QVm7x4bEauC4gCBpWsrYvvbRff1QRPWj1x5gr7SrXo/K1UvN7vDrryC5GS+4kp/GjkA5xP0PP/6Aho/lw49efVDIXo8GRqOkhaExg+mskgAyycQrxsWHH7+vn7DhTx98fL9WzGZS1wCJQv3Y++ZrtsR1IT+Lw1CGMGB4bTR9/P6nf/tMX6fhb6qffvLBh7VSLu6jqqay1FHQX5PttxK7yYmwKSYjjElKwvh5/8P3P3397zj8j6qZZcaPKoVsxriKd8/pgFZtMMXw0ZXEDxBObfPg1fvG/NnfRWwGMxpXaBlrSQu1I0wwxnayE9NemssDJGj64JNPX1cbRPR/9G/G0G6Uc4l0nCUt1Do7Yjc082Lq2ga9UEBazVy6Q0efoG2AURXHfExnKjalZgerRBrHx8sHAvw2ZpVmCTcoeX+qP8hlkrG81g0VLH0NZiQxhFhgxs2Xd2OHRDAZ4rcxc+nRwQAz3zc8iOVc/Eqh0CrLp+7Qzm8TVzxk2Ky+evdvFwckncjBxE1urmC1D7Zwq/Li1kvujR5pk/843hCCsb/693ox+/q9T39lFosfAe9c++RsCWM5Dww4GqOOgiZJC0OwjTsBq81yNhkN9h/88S8GP5OLAULc1vc/NnPDwOLqvnEVn5VhP2m3ekPDbX0tICKr6bDfaemHfyL89GeXAiSduP0asBuSbyEMFssmjTEBmavH/QTmPorvM5wEhsWo26pVyq/+3uC/fnoZQNJmLkw4N6Thlhk/ff/DJiuEEo+m1FRP/W/I9hEkEb+I23J2a8KX83HvVC3mb7/22z/GCQFeiN0QJlxreKOCq1o5v00k49BldiUobIIxpMbTAPSRoADXrybD7qlayG1fRvwsRgN2yRp2Q/tcP67IcpuKQ/1ytQ7jt/n2i5g/PqYWWH/59aDdqOS3mVduv/r7Pxqt22I1wZY08RsCuyE3+XLwPo6RrkeTeHdowGSz0W9VYrecihp8KV99vetA4Wkh/MH4HD+C2rmvMm5rryMZ79eLUa5MQau2Wns/4av8AhzEkHyrYEmmb/ZtmJKpV35t8LOYTX+gFuK2hsnX4x27Fx82KoXoSuEloS0hWMPII2s8qTCLrwDsgYo1SlaxhE0gqBDcIBuLe1iJfCnzyaDTrIL4WPNZ8+vf/P4P//2ziwCSefDRx5a5/i0Pp0ouFWn9codvyCSPuRE9hNj0WxYIFbHEqCw8aomXIUXJU6tqi5O/tcTe8Kq+/Zd8OR8P2rViDu6klA0/9lunNWn4DdkSEYy3zNg9VcwaIyiEAoVNKo3O7mvkCuTR6yNm+RhDwUYLYUbrgygPHWPcgdeBIYflHoHZOBv1zbQFViEL5Ed/kkZ+Q9sSvmby8XUshEKyuLwD2Q27Zi4wA1pi0UeWnEL+TOmcPCCyVZY+VXs0jMlRFcursARdxDj7+pvB4VQvZimT1I4f/UkyA1WMkDmi8W8K8qgrUArPf0dBt6DzOB6ZEYny0WqSR0FEeXB4aJTFwRhGl7CD2Ux9tjbE5YB18pUHAaIWIlnIFEL52LsrVVPUmCa0FSErjDiD5rFYVfmitmVtPj3iQcBAMiosWPj41Tf9o3GWJCajIPz4T3Kv3afH6IAjL4SS8gVNJcA8+vrLR7aRJSMDDI8gmrW4k0fMwhrXWkKAQUdzwHk5MRt2W/VSDvvE6dKA3Ca7iB7vWEfj6lQtetNOBtsScuzb5uKyKlYaFADw0hIU51C6BAavwhjbdqNSMO+KC2I0wFakHtz/IBzDoc9ieN+34KqGty6zq0HfmcCNQH/sj8qjEEFyDA7DV5N+q45+OJGYIRErHtx/PzpHd4iy8fW/vf99i13Y8DCXdx6HiUfjQ52BRU2OdZYkdkG8BtSKDz95nU6hI7O6I1bvP/yIXIUGypjem7nkIsYU/RRj6pywqIkj4vQQRYAWNN3xS23hDKiT6fv79WImPPJMq7Yv4j4pTbNv+q1qMUd3Ul4vGAjEn/7dW54ZS77QpzQWMlAnUxhBM1jUOFY2oZyNzMTrSb4O+AO14jM03YmOWl1hIRSSxaUh2xEX/yWA2wadFTLsU+BSgRgnn5q407/xjv1R7JXSfXy/HkIYYTJTrLe6Q9tcVVFfg/gM0bcq4Meod6TrzfAeXDCQ20bHGPLojl831onmBVl+cDRjwjG2S+Wqx/4IvgMSwpOL3hKXnoMkIjQZZ4mkpK8TfrTlu/7kM4hJ/c63LMoWso3gRQmL4TmIGay0+t+YSdmj9ZmHFbgFx4Xjmpu+mlBREy4S8dpA9MdYvAzl7qJ8sMCioeCnNnnULpIW+qPZlwTVwEldV2ALX2CwHEOsrPydsWVFTdKAiwaCYrc+g1Noz74EOrVx4NiUVE0GdxR0Zz+egQmMXh5ssas3Igol7UZdZDZMXjf8KEsSWVPnSCQP4M4lFBZ51PdrdgXdlOZW24PJ3EwPifgzhYiGxe2ZKhY16Z2qAVXiXTAslk6RooFY46anBwf3ARegxaadERRC4ZbpRLZUP+4n89VDYwowPnK1Cz06TraiJs1KgVWJfA3Jj7LfTRDUt+OO3+Hv1iDw5f7ORmHyqI81i6irJHFbG/N685CGILYZYe4eOa3AHjXbw/LI0SxK7DbdU70ERU0I19P6R1g3dfDA27JARZgzFpQAg6Dl91DNB3zX1zLFRnc0Xa6fPlSHEYTPGMri2sfMhvnEAoDBeiRsFluBfTnhRU26zTIraHfJQAIvCDNFy1/35q8lkmU2QQERCwOOGUv5bUYlX6p1hrPV5qnqw6fW0ZKIFJ6wFIhVWWBYQKxRK0ujBvhkEd+AQmYOzQrjtb5+eOFH3HrXs0bpGGQ/9Pnw96AkKA+IdQQGnFqpkC/WW4fddLm5MuBGx6Il0Q1gq4zZsISTL7wQqwnJj7hKZ5n1+CEOlpxYH4wr5sX3HzarlVp7P57BBKNlcJoXyG/oEA5LWOwhRiJmOjRBH0K5llBRu/WPstXPwczQloHpTdsDM9gshZXC+7DVbNMqN9/pMwltEAfnEiJ9KgExM/kxGRhnWSb63yM0TiPgx9yWxqH2CT58t63AzQ69YMbPjKvvdTCer/+t+p3dEMZrd7P1UQKDSc6+HvaO1CgI34jRpAYv/uirdyXUwOllhsWNda6V2MbXlQqhyHtfrTcGqmZ8GjhG6aVYTKKmpN3gwORL+yexe/Lj7lf2wIwhH+ypTGtq0+7AHkamm4LeffLo4Xf/5sbgmYaGMEmI2FiCHr8eHhqVfIbqfvdO4vQYQH6UXWkGxk9Cc2DbTUGPFm+CoPLGO0++ffjM2fAFTU+jW62okrPxoGOcoRKYFxtEkikyEgPinRgNrKjeG//4J1mCgXkRMIump1/4Gtz82B2gqAnd9LJLDpJWZED84JPXYzb+j6FgaVwFj2ZZomaMzqBMldQ8FDW57CAiYkZQwu0zjQ3eAEs2qtUofEQLfRqNyeaslLV9IUwuJBYLUS0cK4P3epxGAcgdcvXUYvlULCPMehjFrEdKqqQaZ1CteppwzYlw8iPvTGxz/2d3YuWKGd4KcPXUMhhXURAQ1gCa9JKEV5ouQoiIJGGNH8N6YrbQ/5Dlk29tRrEaFbwke5+2amoXIWdFw2oNHYJy/YliueMfhUeUwhCvmZbxX5wBx+4lMxAPjj/DI0tRE4va09efODj5EbgISgwZcO4YV48DLS2LA/E0QiPivhrvO01Q9i1KvBCvAcmPxjc276MPSRBhfAwWyztixoeWEQYw6UOwgNHD4jR9OcEmhCQlfT7ArX8UttxSWxxi5oVltVgIBUCGgNXBg4/ROJuNacJOoLg4IZIWTRkj1kby1p03oqXoJsCVvRBK4EJmFl6EDolHK5KxdbK0eenyhIjgeu+TMfJJecQdUAzv8ycPn/2bj0HrVJxU1d2CRAzujzXUbeGMEsyej+5DGiHG1CifWXwSVWGrpfE7+yhopWrhwHHEQ2Nak7NjvZBNgM0ZJNC9EPU6zKSkI0tBRvUMHwBsfIMVQgl2xUbFhR462s7Gg0OrXtyy6VKFiIjAemkkV/JWdIuzKYgF585bbLUuBZEVR1fLL5ezUf9oEbNw4UKSknrlAYwYbb7l3y0GFWNsu1OLF9aRDMIND22jBoImUCWVprNMMHtZNma9aIrCH3x4y+pGRcTiihdCsa+MTeBlwPRoTWIWesaPDJOwcyYJiguiyJKOFM/Lce8sj2p3dS/AFRuYFw/5Gm3OQZ02a2P/zxwB8nqZMH4Wl77lfTkRRlQcDHfAknsfZNAvLJTjy/mo16qDOm2XM0RE0hlLbSQREeZNoBslV2QZ4ErtlsrHh8hvI/NvzASNJ5RzhU0RkC4CdzbqG75NVsIt2YPaOBDftjHgBI42JkQ1I7Ua/WBp29xFDRGSRV2//8H7UATlLdU7atKSEASIS1kYHJdTQzCoLL61DtzVW+98zi010Mik0egjAWdH7OiYdMzw8ziZGwngFssJG1UU3akKBgGDAhEwi4XlLQyJ7WSb+xRkoSiI4W1y9e/AUXg5FDUTMVv3W9UCitePFWI0bYx0IFrJpTAoizptsahYYlN7jKwsOYrheYuPgRN4EVgjSaBBVUHIzK5rJuzlotjh53Ei2ybAt1iePguKXVkA2Ak4845HtGqxxVk4BLsyEKqRxMUVt11Mg5ydpSfu9bsJ4C2WsQ/egweyxrXwALBH5p2N8MSpLVQOBlvF7DZXNjwSWUyHtr7tiCWJkbmRAHCx3FnOoJlzq99OhDm1BUVdxjvAgHPPjDZXShPMnU92ZsoZAYNkEzvE7TGhjaRe4UVQWIxpd24PiD2pqTZ/WbgcRjdBDARji876bdKoiNnEk/w8JiO8hdiqYzLEumwAkbeCshqFBeAt9MDV6ORKCY8MjDMsahJb0IyYTHU1sGfm2KhBy74V4KEGnmYLknCu7IVQuPGKHmfQR4BUsfD5I4ujwdoLw+t3kOnwLbFmL3LifqXF2aSibxovgguhbNZLkrDa5A1IiitejM3DtgwbfIOqCUJHndxhbIVCVJRTFTtlQbKHx3kwynlYCqF8B4bVwqyNsdvEGWpiS1W0+LklBPpzD0NgIM0K2gDgYnm36WWEpjtWqhCxsiCohdWQgsEHd4s3OQsis1yRSjHQdMxUWmONn79ojTdtIfA6GgMmUQPbCuTAppkIFQu1OpU7YC93WGhgFn+QMCNz9fBqNRvvUZVUsokzrBGoNQR+UbFgCopwLEZWJbuBzQGea9+xOGA+ibJI2EJCjNzVo/moe8LO0ok5fh6nYesFvntWJbsFgZmK3AU6t0TKlpCEXN0dEeDBvvt1v1nKbWGKOWI2bjEO/I4/Wt+//+6bb1AcqaqWBSxn29ydWuwt8XGIR4zBDf5H5K27731fK0BJu7gjVrZTNJQL9oU3e/edt9/4u4DxDp9tt7Z7aVmdLYzOUGBBvPPZex/cp6LG8UesbCeJcvW2UD9S+/mf/POtvwsY3hKrtdqjWXSj3AKToOGGO4wDh3owpl7Mxt86Tralx3g0+Fp798ez1ebRk3feQNjNd6x+qNqiYEuiNKSlKrP8jFosVwOH55BszRjC1Wn4DkjUW93RbGlKBj/6/J237vydLWAlcseSFSnMkofFhxeqVApFTIvlsOn+4EmMESvbLcqPO6E+YxtNl/9Wpa9uyT/fNh5YVsq9E7Vx23Cj1a3NyzDG15U6cxG6NTre5U5iZbvB+HHH+XLjMJwuVmssG/zwyT/ByFZq94PcOnBfWzMkQz0qGV4Hw/vfn2Je7jhOtht8i7QmwbybbahgMB/vBcwMiGDVbtJglhwwukJFjCU12fDT9w80mpnnirxoWQrg0fi3enyyvPpOjcFi/AddKhYlS8OKCNbcH8xhDCThHxmgYuLPPvnge3az92KKuFxuzjQDukVqW6icumbu+ju1j48/NyPONKNweTNsULRXDIPa3ZFPbzoPom+A4XVouXqzGl+50yaufDHi4ecBQSggO0a1eRjN11fPROyjWMY3zfSGjSqTysWDIYFUQ0xoqeDq9b8ZS+zb/LTGE1EayI6WspPTBhiwXavHd9P1M5jENurTJ5+/8ybOfNM+Cl+BulIi4SB6xzJ+9NrtbDzrnYPp5xrh+HOIuI0W2+pkgtgNe2bu5hkM9pG+ws/33kQpDPwhwF/XEUxhgTM/U+jb/Arc78cYkhciJD9XiG3NiDEf2sC9QRrPVxtj52L87tETMooEjB6IvulhIAtkQfz+PoxxJPAQLbGK9BOwru5wbTNtnj6DAWdbR3kEM4VmeiRoE96BgqvPPgUORLzZezEDGCOzYY7Srw7V4PceaT+era6eqgUStMAj4sAWEbshNPED5v3rMBpX0KGfsVsMPIjO9xcsiwMbvCGsEzP3KQ38AQx2Dux/vs3XKCI865AlLyEgwSGAITxgptD4iTHET+9AnmcYIVEbgfVEcltqdAaThTEhQo0ItcEagdpCEADxAFVy8LqxMK7MSN9x9PjxHUYxg9uSAdnR0mYuTPP1Uw0chY8BRVBE0IjxKjMHQXDyBxFRlMZKrrDJIXECMg1GZtIAgmhAxn7zsMO5AQbrav9tLYLy5h2BmbEb9A4tBMIIwTJWTqIk9NQeAWOaXBXYDddXT9V5tBn16ePP34EF3ozdqG9zDhxjGa92h+Al44gm5oxZoFeE6iT8U280XW6ePnSH2MeHT8wInsfO8LbwYnjQt/msSqaYPNEXIiX64zbBny/TyJifBg7u/If0a7Z65y0ymDFmoBFLobwHDDjYt/kxIZFNLLkJnqFaJAq1Y380WwbNDV4jm2krgnLPrDGmC+gb6MUnH4CrVDIWiNMAOa6iClyM56srPvehI1SDFjDjW+QBjfG0IMtvvj9WC1lwdbkCuBfe/TFbpcXC7cE2WmojQS9iCBEqhsdclfG+L58V7ApITm3d3lumcE+Vz7QyINJ6cebbMVsHjW+IkquP2T1v/bGfjFwFLhqH4cQ6hVpE3MY3GP/h23EbBUoivw5ekkD+RPIShaRT9DXHbO+mTv4/dGa+Bm8DR8UxXmuEQXmVJLwxIhcmJC1J/ILHso6C9vEgYCWqAUVQ3gEv3mRxZZymf7z91htUuAXu7wXo5pa8MCFp+M369UdY2MTXaAibaV8jW+DtGA4gkVo+I1lcbep3rDNDQPyb9euN52vyw+eogePDR1AERfXNtyW2hv95HcZSFjoh4TKEpOE7IAH1yxmTX4gELyBmfPtNMMZ0JC9BEMNHFfpaZF2IEJjq7f5otrryg0ArCTDKIxTEpW8ay3/E1PJ1ZMD56EGWSuGdC4Lg36yfWaWZ64kEuwkaQS0ZNP4jjqMqGdCyaNYo6UsPpMn/Yr21n6yeqnqFSwmUgProRFRjCHghWArvU+sX4eSyAzSVGp39ZHH11OsQdvz8Hl0hiacH/wDvQRCDRTmZZAT4RWxomnjghcyNA8iZiXIKXuljMzLuw3h6jzPBskFjJGDPbr0Yqb0zfo9c0orf6vHh4qlnW1V1IaqWh82X78pnqm++FVuDqhpLUxDZjOU8Keimfp9wt7di4OyER/rUAoQ2W8Iz0QASOK4WX38DzfVHy7h6IW/KZ3Cz9x6QqwieqKrG4KGoAmCMXuPDeiRjOvwpdtCjONRDYrH8DlsPN+x/T3c2kxaI90KMBTGfSXonbF4MTOAV+Jv1Gy9MSWM/CJrl6LmaAG5Ws8nu0DqZprr+7TPjoUFcnYMoGvwmsFBPpKp6JrdeiMHTk5k6opYk/836zTZ+rrAEmAUWsINRudqsFsa23axqDTot5m5sJ4LeIQ4c9tVoSyR94wWyic4YEGXDFvYtQJgur555HmB0eFAV6jQEXc7Hg06zWirkH7x2/8MP3rv79j/iCxgFVfOolXOJCMitiIwWg9VDdcLphrCOF+vNM++D2yQwwdd7aN+m7ypgIrO9Dd0YfRcRU6dv0gBeHE7lHK3Rq3XEj5mJXnUyUzDm8fJZJIPDJDAZfDkzUwPuwjzvv8r33r37jxg7EKyT6V1TJ9NHZdZJMb4IRqGRGF6w+XkyvQGxB9vlqnQ7gNfPYjPQ44p6C6ZF9x2T1WH3MvZd2934TpwD57N3oU6mB8CC6H8x75UOB5ysn7yA7MF2TahfLkYm1c2C+gQfvuoWlmiO+q7tE2OM8QAcOPqZvgcrI+2M/PId3orEVWBsHQFZyIfOaHkVK5NeraaDdoMqRUqrha87kX/tw7iPcAUa6mR6/2NQ0dLM9FbuxBKJRuLaTXoB2EDGbrKO0/RwvWB9gh/EAp1OQOfdvfdZzA2gmwLJo+b33tYTucUiT88PwRF1RECWbMWscB6juWb6arLvnKpO9x19iz2XdVdj/qBvmIWwtTY+7jv6L1568VZQTHrrhVu+7F/kIfZyF5gV+VqXFMuKz7Sh6cjSfOrwFRN7YEbyLN5evolegqLmmfBAl2CLAbCdgodcgcW5ddgfEUuqcBpQ/cLxgOqGxCzs23X3trIms2R87xp4oXrn7nvvs65alHDAqDbggVF1XkFAQPSWje63O8hSPI4Wm6u4AHvK6YR9gh/iLvd//wGM8bYkb5hyMvlMSOD8WxbnAeWI7Sw5fFlrRO1AArO0x+v4OIM+wa+H6hN8xY57ugZGGu+CF/er+UQ6HF4S4bGoLXEZFAQIhNjTpm5zIkBLqT3ZxGUumwph+wQ/uX3wUeyN7yiu83WwfI3diGVniEku3npR1LhTdKcCz27Zsxet0bHLY3hbj6glJnM3Syhq4uN7B2P4D7EIisYZrBQKjvUHmBB2JpYYVMAdxrH2IARGwc5zzGs3aonJk9UMv+oWHjoKK5nJPwAGxHevgWf6GdNUH3iw3Ym+ZEtSWq4qMwvLOTYLB4ZF7OEKbyhs1ceYFDrZLEa9Frv/jT5u6hSNtN74e0EciGQJPRYdcrFbFptbzteXVQPTpSqBS+cJtQuarTZRGzZmlTilfDE78lGvwyh33+VfhJOkuC2GFlbykloCA4XpuIF79wtwK5aAOWsCtumuG92RGaPmt5n5vgV6Sc09qDMGxOuw0N1P32dfAgw3gBUK3wpDxLaEQ7icNeZ/MCFLrkoNCo4UV7qej3snxm7jsRnrt+v0R9gCiL1zKITysbHMJhzB4k655WItEABRFi5GIDj8EaLsuoBs/qIH01WEJuge1P4Jxbx4FvZqRlwg7hw4VAjljc9IID/mijoAI1IyYQAYFSBWfzBgNoJhsAQmArNB0tSXMIfRPLLZG1bUpApyTr1/2S+MEWa+E2souwBtJNF8CPKokwF4SawPylaAkSqPW0WYP5aAqc07tQYmTgFZUmY87UnTrIj8XExpbSWYIrjF1cCA+O478X5gXtwF5WTorq0EghKM4PyWEOWxsCgPDAboRUtobOHgofUGgFadNoZcvQNNK4yG2Xo67J0qefwjFohAt/08jddggXfA4i7xYLdr8C2cshPhRETUEgIKDKdiHyyhEmYhNQP2kEVEJFNsHAaTuVmf+rZdzceDbquaS6Sj7cZoMzPmlirg5dumuUpUCAWksVpg4tcAKi9hYtMSm75kCZE9dBZ31gDsd5CkYTWwgzbWeIZxNuwfG6DqRkSAr5vxNeDAfkfRUu6++x4JYkDmcJv1SyxFyZKYzN1LbAV2b23LmXBBCC1hmsxHbRAREfhOEB3J6Bmr6a5LfcERYU9IKPumI3zwyd34W92j1RkvyACrldQrbDGWeAxIYlIwbClR8BZTodZTbRYS20n6vjIBWWWh1hmMPc5U3axX1Cf40XcIluJNnXrPWGmMYUyq95S8/Ezfw+6sTCh872RNOpIsMaGJ6cqXbElKS6Tq5IolTlkq1AgLdAtWZ+RRAvVmOcOaNbepOHzZL+I/8x01kzAWnHfNSO9XRm+/+ts//lwh8oT0JMSdypKU1kDY0qWWqywvCSMvQdljUKp71IJR1LvNi1mUbFtY1CQG9/gbGRDffSfWwz0DIVf33iQvv29RF+68/BpBeULTloKE7EVbchJXY0tjsqSoxa393FpE3e8gZLOfUKEuRvCxADgbHZqsZt9YKHteMML437sbZ/zDgA935Z/vvvc91YuXN/hvAiY0rdaCq30xiLyEPmEYMBAv8QBYYYPgtqMaiLtD4sC+CmtazMY7MxGvdVzSvNvb1fskiTXWj//gEPmnvPtNt1Wr6G9+/weA1S2mIMkdM79k8RaChcSSR2lJi1prDeAtWEXsY5MQQG0Cp8ZZDYuaxKdT78j4/nuxHrlb84wevtkfjvc//NMfXkDcsuUmuhPBkNjOtcEaomafStGq0dtEGTUPg8kyHNaLyfBAKo7HqAvEVBkDYnwXsMwlE1i8K19/84HIH39lrF8SxnwIl5o5YdY8BIxANGvj1HFfDLnKHBlpPeqE765YzZrNUpZs4tXSYVqv8eyuxhfsAYfP/0/efU8/+ZRgiT3BG4EQUDIzOATyku0KNPnLScWeQDDJDPyDKYydBbEqqVHeO8bytxcBd3ke66O7JpD/+/xd+fRvSH7BaCAJDoGFN4cvZE+B7ipqDP/GB0dzs9LvbJSXtJuPB0ydtlg29xWKoMR0Abfp/+7qZ3+99aLhOxS5BRSTjhgKE4jgEJhI1hK+XwB9CW2cgRgWafgrA6AuplxsAqA0d7OcDDpkm0yrxvWGDoAUhlgTNBnI53L3TQ4RHoUa57QadCciLBg8XOiTCDeihTcViKL7kXAlGmdQBOU7sUyoTlujHGUXGDc8H13sCcO9N62EWbAViFByElOWgiEge3LPQoHkF4x4szBMKpMt1oEBEXrUhJPNYjI44Jd6LbbQJJNFHc5IsSfjpYnCLDj9MxhgwWws3omKWOxErd7y0LF0aZjwxZ4jissdARkQh/MrPqpu1osJ2Nr1uIrnzLxhQPyEr/GeiGMc6hgmEfE3EQTwc6WrJzyKxQBY41nF0RrfigQsKjwstquC3zU2u6PZQnUpq6WIzqdcldRrUPrvtfsfvM+8uBccl4oF4him8LA/sUCYlSUARKxxrcULa4AsyVJhXoSRMIbSf+VGu78bjScynYiOdv0Ofs1LktegHqjbVdTMjScyXaNQ5zA5TY7PA3HL4lbElgRltvZ5thNwh+zKCOQxZiqYYrXR6vT2A5F9v3tsVPFrXhKvJVbnzO2dezEZnIlwgD9BhEemSAK8EIuV7TpNzVwDhns0VBqtdkekfWziLUCSdPwnUaqPyRRBiekIj8B36EowLrU/D7BVEdusgPTprECxkhaq1hoitXqFvlHa10oILKuOKYYGfHQigcuiA7FYsWDwiNlqJwEPa0Dt1Wjm8oWiiGruuv3u4DT3gI0xffq5C3nRJTPRmsa0LWpxzyNgFqicETCeKSlJaEY1oSpmqet2l9PrNMYPFieBREQCLq2IjYg9KWpZnofREgVXBYl0GdTNkhgQrwURa+xKywURUevVZfulaU7DCyYBKuRE7+NNXjSwRp0qErScJVABsTKmQS0uvDFxZAEGcsYPY8zJi3wxhWdAA9zZQ+JEg4JxcNCI8nadC+OPz5IuhMTu/5KlI1nsGeDOHhInGhgLkwnJLdfMLUawExvklh8aEB1b3Vat8DDJTCaLOjZ27sSLf54ChPiJayCFATVzi9dzB+KUoOQxqtMJecjY2MEkigTXzC0ec0MQ8xA5jQxSIbWF8f334jG6kpAXVEKExiVMGQdCQUAzNxrfjYPrUMTpErIE+BciJlYXazrpUrwQcoz8clrMOSYV9Ut5Q/hrp9zdGFuHjm29jawC1EhcIw7syGEpdRIMh+hTAunlBBn/fHRRT8z2n5+HJ8HweFnaQygK1M0SZr7zz0iosVGLnR2/MPilh/SkJ5tDJq8AullidUyYhPQPy1yxkn8SXjRQvWWnEIjgoHih6QSp9MiA+P67hkAyklYD3t0LY38PQ0DzVNTyPAjwPIC6xKjiCXOCUFaayVdQMzd6ZPZoCJHevGdxBhM3BAAe40KTW0imQCeFD3CBgIhV4Rm6u2fzSeDZPft8cSJ+posgkoZfKRxKYfgnLWBNUYJPAWEQS7LUwfY6EGIZMQyI9Q/NTG4KSFtaFlXhaVLLZLeQ60JoZY28DB7PUxQL4bN4avMec4BBQYtQxDwLiEKDomPrs6AV2MPIMMAIHNgYnaI/Lu64g2BH6FHIJ3rLxT+P1EAtPRlvUyNt3uUPthNs+2hxwEyc7zC+1osEsawxY9ZoZtq8VGFrsczly/OI+F44EqupArmEykB9dGCJpiA2nICnmDUpfCEw2/GSI7H45J+enwkGKIICjbS5iyfTEKtaB+tpts0n69JB+AXAz0Apy7DByqODX2aS9yCFAWJYTFeyILDLzRgeFiBu+BxIMGI15eXxX3qBdWN0joqg4GiJXYOiWbdgfA5ytyKDhkYe8/wCfq4wZ24WI3+wR7X3LKaAp5/7Jx5j5eP58vRw94s+2hyxpgX39KHVaHmwWQeZbE/jisOEb3ewSEaRAaPe5V5YHlxI0PMIEX7OpdLudJFMqCzURmL1InD5AJNllsQH1uCaRDp5nm93xCgmBTYbLYlMy/IB16M9EfLpl4Ex6i9t7hyCErCC0tFNu3OWhp8xHDTS5p9g4m6tqwt+/Nwr+aXv+XbJ334k27Q7cXWbUQSJbXXBrt35DmPg1WFKcv3n80ObQIySLRkY2Tm2W1GUoCcwxcyJ8bhqlnizYi6zOKPOlmG0RrPvWFeg4iBzK36LHcztxbQ7e3yDiKTyrJ1yFMsG2ASG4EkMyS9h3jHznC/PD9Pw/QfjkNzerkARFHF6sJt9kV96nqCw8fny8vT48O80/oNzSFmE8VvyGZ+wpCZbgYtfjghai6tXQSw4ZhCztjJ2VxkoR2Efn9wLWpve424DiUT/5FfGheofX56n5f9ja0gl66CJPM2ENYYa3K1vRYc/6B//TKZ7swziGUQtmrm9iwhcDbpXR2uJCr9UEjMDNv/e/VMG6kFUU9si9thEaGK1FsQvo1oKJuPe2Pz6Ht9IZehTjNFWQxBhT6yEIwIDcdqg7Wvk/tsnCuqSmi0iA2LQsnantskO32fbKF7/z4bTRn5j/HklmqvNxJIzN7y9rZZ5geTzwMUiIL9E0KVm9OcVY4sgIWWmAIWQ79rn3XtiWwHNiZb8EhhtyJ/fvIruf3JZNGgiS6ONAzuAoMlOIgDNE+bPy6+kLo4m4d23aBawnWvb7Vyt/U7GxuIP+H15ZODdGO3Ach00P8jaUwFjXsTkNZ7dGDQRUQRWISd4wd1zXyMiv7T5Ay5i5jenXKQNauYW5PnnAZNPawwVEy0D/tB0yQRNMgbE9+7CnGBffRPis2ETy27MJPh00WS5LVTvs/Uwx5YHv4TlNv6ByRW8fbGy/KgF+AntlLM+OJNfvqRhJ7IBLmtWo/BFFLCVSh+ZBQIeQOqC9VHCw0y8iAnmN15KQUSwiQ7fm5lBjIeeya+U5zfGidGGcvKkwE0ui4UC+c38ee3By4k4+0cwF2nzLrkNnBP0xIdQVbvfF1QLwHcH7UPj2efK3VvMAXDWoPL39z+CIiac0eYyy7L4Ecy0PDhau2U3/tlMrz7I3eB+I/m3A/ghCeMHsCGs3H241oL+PIAelr7sGlhrrcmIXuATwne2cicOfIa/vQ/Zja/4k6hPTgfh5aqgkwKR4Nn37liBCnTYi5hwRpuLL8tCHdYL/j0JZLsGKPeH1yJsJrOSi7EhRWrJ0Aim/2Omh/T4V3IpwupSUpCrxfxJXo5Bk0Lef//Ne++SjdXXz818gtJgKWJi3GtKLrkm9y/7BY1fImETPcI8LlomoIjJZRnY/b01lmwO+AgTipZhdSmBCgkXaVD4bw+CzrtjHsm9N9ERK2BnFap67cA1F2lD3stdUTO8/lf9lVEZUBWm+yBVME3DTy7WBvit1BhLfU/1U/2bQmYj1qV0H2sRRrcXbEhkb8P/yJt88P4nIuRW/kQ2zB8ffl+CFUF55favX/3Nb+V38icaSKgg/z+hkyROl24WqVde/vVrr/7GWMjvRYx7Ywr6Q927eLM04+1f62vyKg0iD/T2y/A1xr+kGyWReUVeFvPMuBPlQlUv6AyWwRIGufgb/uM/5D/yH/mP/Ef+I/+R/8h/5D/yn//4D/nPf/yH/Oc//uM/1UCT8A0ZTTz/3Acy1aRtC6Wf2w+QjP4/qA7OS2ayhWJJivDjq32+QTLFtpBmM8nn9fsiVCyLlPKZ5P9j6la1XKneOLXw68H7XLNH01SsN1unRr2UTT23f7Hhj209VfOp55t+AYpN7wKpQ4BusF8If7116O9j9t98lVZNOg1nvreG4Afm2ert+4dWvZC4EY7SpMiZ3TlSxWZ3MNz1TqXE80mekKQE+v1WIu9qXBySosGv68YaM8XmYTAaDzvwm/qIVQ7RNnDgWZtn/qfFOxyP9odGMXH+s1Ad9wwR5RnQ5ymBUDruprPpsF15Dvl+iuB+hAd3tPsM3xsxbz3odd1cY6Z06o+ms3GvEZ+vhnY6mchk84VS0FDUXBZvPdQZz/YqNfuT2XTUO5UyN8BhmsnmCkVx2DfyuazZO84Vyp3xcr2aHKqZ55Ips80VzCDbVJTQpAl9vqB5Cdz3kim43nVToXzcT+bL6b4ZI6S2uWK53gga6lW4tpNInm3gj+xntpyP9y0npJN0tqJnMws1QXtGtV5rBAw1qVfKpSL9WzGdJ1QO082zq1mvvn0uuSKfLZj9SKRS2EaZtEkmaG9UrZQK9DXxtrymrUlF3WDXZTOV42C6Ws/2p7JBPLqnzhzTlXqz1e7Yh/bxxCzoK6h9ttEazNfLyeBYDkQaYrK8SnabSZ2zpDXnHNoa95V643RsdwL3jdapIfVKyewcyOBybtCdPRNZ9J9HAHnizXbn0MbfL5lE+UOKOrY77VajQnlwlj+RgkqtcWrW4L+aIH0job0zmA8AMbg2kSuUqrXTsdPbD3ZDtQ77fhedmu2XSp9zrKYEh/2ert43pVYt5WKetB7jcVGp1ppmz+j2za4RNOyl3z3QcVerlo23qTODzPMMzGOp2R2OJ6P9sR7ZT7sgLZLK1w7DsY7wK8JPSNMdma21e4OddE8Upd9MOMYCls+ocq116A/MLjCdBQ3TiepIB/1Dq1bM3DiAn17wYb8b9DtN+AU/n7PbKleuN4+H/n4IX4t1h31DJrR3DPf9w7FB/9lYP5iIOSYqx+F8c7WawM9YKxXVxbhMiX5Ibyom8NXCFqDJLcVLi+V83GtVC5kbCoN4IK1m8xcqjfZ+PJ0vVyLLlWWwhWIxHfVble0NAIdLMo3DaL6S2egAl6/O06VmYJysNo+9HewYYYalLKbjfadZziZ/MJFkIls2UeYzkfmwQz8m/ci+pqbVzmTzTHTa49cg6O5z1LuT9TNZz4aHZmmbfI5BEn582afOYLJYX6nKajG3Dwv8TaqsF9Ndp5q9cbAt1o/7qdk7N7M98W+mztVXwbxYabQO+9F0sTK7wGa9Wi7mQcNixX44LOv5eH+s5n44EU1miqfB/OqZLsb9Yz2fiIqvrNToTQmTTjVvnGBGTbHRn0GEMRm0q9mbD70b24dGu0+/wiv8UXGNR6pDHFSV0jprc7QvZ6ND/eZBttw8DGcby+d+bDHAm2K7tx9NZrT9dbNazCbj0dA+sJ0DfxRZu04t94OJiEgyV+tNlhtdTYc+2WKdEg8zg+WoVaRfoDQ7ozrtaXNvVrNRt5Z7bkFa4RcI3N1N5ibpAr8os12/e7AN2h+MJrPVRpfTYecGAvz6eOeA0aFZyZ0jZOAXMWE2vfFnbd6gq9V8Mtr3Dh058KFz6PZ34+lijRgdavkfTEREZFvt0O/+RhYTYguLqljjqUsHz3q2b8AeZwGRzfL5BnTbpqunntnymytjMzGmzvHUtAwnPba7++F4KpPRvu38BJjngXX+LKMH0Pnw0CyfHSSJLaPcgJ9H1ppOt+c6m46H+2671QwYiF1gMJpM56oyGRr8kCKyLbf64/l6I/NRp7qN7ucTRTH3fMziV8uT6foGfdK3mfXAH54Pue91iHWjUrYNWiU+t86hp91Os+zoREmuS6lSlVwifX6flBqd3QysB8d68QxYO1wVL9Vbh4E5LPFX7zQkHihigaqUpRSwc9Ro1gEYcvadeu4HFckUa+3BZGUiyGmvHk30mCie9pMFJFyPmDDiTg7jBZ7QmwjjuQUwF82zUe/YqEAJLuuQEy0UieOt0dR6IeOIRK5UbbblVN6eX2iheurTTr+cdM2cc5NwTsNfIcR+PKMrX/BrZ2ufatUyFrILGnJKZfEqteaxfei0qrkfVCSRr5y6Y/JksW/kI/kqe2TKbfoJ5bHrywyqKZOgNfuswJ942/OLR8lt+YS/u6bNYtxrUcqLSmqnkrYhJQIFeIrlinPC0lw7M5H3YNetZc8v6Ado3N5N5zoZHCv0C5M4N7dQrtw87CZLY7OmH7jn4VQvUQFIki4SNKRwyORL1cZJpZz9QUVSWfMwXBgsdyc67tP+o47qgfhrVpM+j18533X9eOhrD34Pv4nnEqQ1mcjXOjB3NRv1W1V3/nRgfcsXqEBDiJ8x8HSyb+TOLtL4k6vp7UXbNfhTHzkzq4RpsYYM4WG/3YSf0WM6XOl7KjyklULmBif/4X8WJAyPxDbjGWrOr2u92RX50qmVrPGGAq9+TerVEpW7ez4BcSyd9lO4qLzrsl9qaIhbepmBCytuyDV64/lKd838+QWwNFfqNWHl3s8K4FfxTsxQG8H/YbtqKR/6+AEhJnkQYfJDiiRN/NjYE1bjQ4Py7r2Hutjcs1i7QrF2AMeqZEVMdEFCDZ9HAP+3Dx3ier+iq66h/uOHVFGwY1IdUTjRecNqeDqLcBJ8BDunnB3JYim4JD5dbZ6Rn1340YiFFywIOwf+YBJ+MBFLCZEpnjkf/ecQUsHR447O2uf7Zriz9ucTaL7c7FGexXKip0h/SnqF43jzTNaj84izWR4rBX/+MMTvKfPJ4HCqFjKeBT/+kCJpSW4r7dF8TVc+uyfvV4gT8AuSXMJV61ouYabnKmxLjfZuZlZoYqRqlFIHUs+hSEF5aMaOOyR2gIJ3xokfUkREMiXknFlOd955ptLEtbOfrK42i3GnSsw1z1VIwc9PdLHGIj/0d67yw4EkzNQeEDvAejrowPWWFOEHEOn3wQU+ZOl3ztNv5D1jC6cnEGXTQfW8hUKjO5yZkI/7rKj+DwaSxNTEkorjjw4gSs6UJv0hS1L5Ov7qodazwamQ+onPfSyZrXboJwNGZYubxcRzF4qn/XS5sQrm+WFA0qJ0QrCnsli6IHF0TI7qD1oC4j/mIDnhWKIMZs9SGxYbRak1qectJErH0YJO7fbHWnF7Y5Jzee+sG70xrdX41q7zf56oH0yks+eY9bhTyfrLAFPRRKE5MOFVlJr0/IUySGtcg7TazI1Jzqcs4sUzuYKffFcxkzTOfuCSZCbHGEA2kwN8zvr7hN6WjsMlCVzdA9/I8xcOU2D37MKPau0HA0mSj1xicIf9w678oCIdEwCPCdM+1CLpU2ZUZ7yipFOX/rHvnt8ANbenfzCQZBa5oZ7Jctxtsiq1fuiSdDIF4vct4o+SPn8+upBcXRmfs4nkcxtGnXpx+wOCpPJ14yMJTJrtjmX6P5X4AUzSogkSv08ZiKOQ4i9da424WgyPJZfsGbVqZBIu0ociZQmxDxBYh8Jn1hfi591U28v2o32IdUgoahCi1wcF/5c2bduAfsbZHIWUZWMHbyL/Gy3pb6OJaJhdxwVhXqG/tyMV8BKVv8YYpdKKTZLDKSsd9xr52M617Ogu718EbyCUyXQ8alyIvxfhsllvQI8bfRK/L5N9u1bwhmwZ/hTNNqvpvllIOdYlTkPIGAwkCmRzecsgQpVwQ1jdKr9W9affCQ+mhwhUWenXXMCrx9d+bYj/J7bf55CKaKk9AbQM83YiYxtQnZy0tUise6HYtY8ZH29C8K6ThUrixQ+gRnN/lZWD+AnzEgMGLNkel/hQU9tKezhbXyE3aDYZ34lkqeXse7oKvn/RTA6vgW32SAg7Ah02683nJlcH8fu0u52KCb9nKPCD4KzlXQDHiEjYCAwkShXLVdtQkVIht3U4DhWPORTk4AWaxGC66ezipvxAoVSuWF+9FHKZxHVAdOIu6E2Fg02y21y1Axi3KzkTFkYh8oPozHags73AC6yhlLQnbTQqAbtOkcQUmCD7AIs0PIkmUqr/nKTQ2oeKFOHPDiEuOfCZQq2LUoj3x3oxE1vQBxXt6Br0/oFgm2h0xwg8aFRgs6cjISnYsOqyWW88bCsW8fvtcsZfuQkqmr5eYFWDTgcUiUwuKvx6ttx1GEtRrYa15qnFh5NS5f0F2NYOxxyo7+hLsJGmMhRMHoeH+MwWNJWrtcZJW0gVlORDhUH0OqBHMmc8AxU0Au1/ilJu9KZXdPHrUDOhCNbYKJW0VB/JtMT0gmQia9lnQkFxqUyOaiVv2XYd0COBHfoaGuaaX0nKJbWkvMPtISa2KpOyh/YBNXLI4EmrRofg6nKWEV8NC7+lyAQ7urbsu3qlmMcEo6q/F4EfeiT3337UgJAwSG8EwcuLoA3bPDlt1hvujvlpptjowE8Bm/RT8iW/PVFqmZCGKDeRzNAmFKkWHQ9eONlFPYNa7UPPNnSlfWzWHH5yZWoiDtpXKVb2w+KTTuQgmKF+m90KJxn5QsnYnI7tQ9f66jvHZr0CsVQ6/nyHKLA26f1aBinA0jSDiLZ3sytgfmpTKGyDQPqDAAdUhTaaFrMpT1L3KrZ9JmSCHc4aaqf2ode37TqddqtZq5TgeA2NRJ5kNTfpap8HkX5MNZFuzz5QTSAUzedicX6YIjnYwzlJQtu1yrlEKjKEzWWC96/Zah+6GvT+gQUmFPzI7WVJkXK1Qa+h53bUJJL+nqAGOMUKbVj7i+h2IBYowKl8+iYDVX82XpEnvVrOvMO+xNUsrrjAaQekspVm+9DrHvFHN+x2DpUv105tpsyE8mGkw8G+1znhz80vQEpVrdXp6eHYKGW9YFuqHQ89bTdC/Dm+JCEqh8oievuBefH2Vz/oH9qnWiWfiDNK7TFI7BmY92brG6TJabvX36sZZDihahOuFpNd3zbs4Ze7xuoyp+R95dTpdYV0n/Slqmi72zuE1SmT/1LYaLPtRmMN2HX65jXWSJpqaGzLrd5e+u2QAj/SlDoNeIX2V7kTihwweZSORSUUiyvSw6JhjiWJH2h5iNq6fdrR+TBh71//0G41qkWzH/uasrjZ+WtwOGpMat4j2D7U3e+CXsSIdqEjEz5xs/0VUNQ6o6VNgKCPT1BQLMGWb+b6s/qdaP9UdpNmnUSdU6i6wtl8oapLZq9znYmM98cavZqAq9yt3mgiuqdj1E+RaKovVnbtEHEHaYbUOHb3qOzLnL16UfbiJ6NB91QhXYc0pkgVW8MZF3eW9YxEvtrsDCao8spsvlyDzgNLndkVYpnCTzYxB6Dd6jCayNCX7n+JQuMA+0yTPrTCVsrbG45h14Fhadt1pvB3iFDYZjQfDlkquanTwamQDF0FUruPr1D5Pipq2UXGo33nBPUWxKISsiVVg9CJ5zIQU7a6gxHu6NZNJfD+TSfjQbdVMzuyn8tdCfhrVtuNJzNhLwEpO2r2XajIJu0FaaWyFzXzjuCLcNms/XataHbBGwyQOgABqkpnHJmUH3HV/Vkocf0pYmBYrJcjivgCobTTFMw0mi3XZljBvgJHlKzWsqHT/97JvJxkcB2NK5mPuo28F+Rq5lWtZNJ11As1zbRJafdBnQpV89ppR7O8eKoHeDrqNkuUfxNfuQt9qLAPSremvFdXx7KJYdAr9uuMtQ+QIXKqIDK5UnM/I/FA7crWS5IYJbEpkyXufFmfzhuOfaqUV8S62dh20xVUuVXM5wqVUxjkmjs625m0i/TOO79CM5FiIrZXaH2JGBaFFwmnGOmIJdBBVjrpSFjOxLJEM/yVyPGDjW0qdsCt4A1csr/SgPCXOhQS/bU2/nSjN0GbfYVbYtSjMSHV8MBYoNHum3fE8oZY9yD8BRzWSiAZXW+ssicZE4/aKxAJn/OVr2B1JTqA6pqccNpPlq6ga2XF+rE3mtl0zRjKTugEfLYgrCd43S9YR4u1LMb9RiHlB93RfC2TboPgli1Zb7a7g7E5zK5Am4opV6dCx1N68aDrAfzUdWOLfO3Ar/U3iyTX2DN6ozkcIyIcJhS2wQQiAOWTgcyG7aontAaTJaHqLHVFIQ45dfZjVBdkadlsquMJqaGxUVZfR7lUOe1DYbh6JhIOGYrfe7uJ/RWyPQT20xXogwAvshK1DsTbShvEKE310CjGD7Clmp3+aL7Gs4TpZIzHmwpsq9Uafl3C4/2BLMNeh6J0D5x70LReUYXweNSwlwDV+NOJRykr1V54JMj2AH9zbSaOpTdkFLRZlcpg4w8++qaCairLz6P7pChWeFAycLSgfMo+VNfpmKxyBD8PbMNO84xYvAY90l1R9djp7oeT2XIDuXG14jaANDuE+bgXCdxqvDyQQgfsqKVKtXsH8+pVxbz40WQOyr5MR6COTTqm4FoXrOcmNqRaJ+P5JAArg4ov7EODfi2okGin7cOU0WgfcbP1B7TdNliVvIkMo0YiXwedrxZwLjCfjNgOwnaRIfxcM/nvE7UWsfiPbb07Ju5b0pUsHz8xcgp5B7hHQ2VOO/YGtvQoh/4OjoEr3IYHyokJa85Xj3yzLwOOGqYFiAhtiW6jVKj35o6wp2lOh8GIomuV2QRyGtt8s07gYwISxKic5E1WkKxDf4Ivq+mu0yiF9yQBZ36kbNuYXaf2+kRTZB7M1nTCAKmTU61ewfr7jwfa1KvlZO+ABofPJ4QawTFani7Yidx8MuwfQMHTisKL75KyAaQEFpyBUX0qMZW7X2ubN58S2b0mXGXyKhi51uruhwKJlvFsRY/L6YiS7sqoyL5DKh/yJwC/T5aWJ+6y2gYTSp6vIC7stnGzVaUGufewUVf0k5Ft1+r0ZBkNiKk4Wzli5ecqyxl7hTXcQ4T20/6QEkf0BsB/L0ch0gWytf5sQ9VgdSj+jh9rG6vHc6PkgtIaR3wDy6L1RqvT243JAR6K3ZCSyCEnorWnkxZ4v0cBRw17CUuz3XXUqVeae45QgsZgP9lQXtO+22k1a1W2WSk1CnlhxpISZNsbDIkSKBIpc/NQCY9MqXkYTldc4LR3ZHisDR+ynRbxaORzxFhRqTdBiRPddY8xR+FE8b7CITDc92BXKxcLedUCMUK2eztQd8i8zEON6oSMJTRfAXE/cKBDXpM/S9DT8nQEnW+l0x8tyKP5qGdCYdcGt1mnxrbEEUn8t/yBScx22/UPwJxBm63A2JgO+9FkAcXX+sdTZ2h2wEk0gAvm/THE7/PpiL3CcqkAe4gKxFhMK6wNfUoeoRkUHY++GiwgKwmUgIufhqMNnGQxGw/7B/qcoj0dDjhinjmhhjnwFs+gOQOuu3Ma5gKbyBVLiB9apPUvO2rKdXwJtClktj8227tFKCThkisJQBdI8kIMTvEAKDxRJ8OIMsOuzI7dPdFfysTNheIJMtE9aTi1rRyxzMmw2yz6RzKLXN4CKYUG6SqbhbYLSJYsaBekWKNayMQardGK8lOmsNfCoUxFnwTKcwCTx2EHetNMUSO+mNe7SfUO00mNm6U7xxArf1HR+qk/JUx6zWpA6YMKMJ3HAo6r7EAkYvacgdluVGrCutmKxM7UZuV3R/3ufrKMCkmWwwpisEb9jolf+CuUjArjGsWPyQWM/SP92Q1EdFmElNDbLQ1mfbrclozhjwt3N4UPqvGue2TxZI4fb8Q/CEnG/XixgR2x06zkEu4JxUL9SFv1Suh6EzEZBhw1xXKF2LKGZlMsx/2DjlehkMqVmyA8XkC1kGaN3hB8DRANsJcwB+UAes1S5uZaJEGMMlT4eDHp1XLhUT3QdU+zWSmHxi8UPt97eNCO+pROoCKyvMw4OC1WqS5u+rmtxhlHEjSG10ZJX27ri4cCfoVyrTNaoCgKOgI8o6XfRkz9UvTVBwbNEHAqhMiKxmUrrNzdsZylooZboCJcB/A4wC3TGSvm2JiIrl0r5bYB+w4UDi7iXwgYfbaOKAJeRIC0kgj89h5+kry6GHVPdabZuG0PUVgULkHApyT+8cJkolRCdEXokRYMMUO2cjqYyI2i1Mm+06jQ+xfwBtKiuUKp3upPVlf42/Kn0gxpDfGTVUfJ2LtOo1zI2Y8atinwb9yKMtR1tg6HYrM3gir2pnT2U8xlM5YXobR35woVyGJhulnlzqSAqe4ZaGtC9SPhwghaZV3Nh23KofGMZIo+382p4sZd2Uso/ChSzGnMQfwVgwOoCuz817BCSqesUPpwLCGayNObs8QIo3+sId9I7OQOxg+oUjalj/i75bTdIHKA/EK6UGwiTi9YmjGH/gTPROFyoPNFoASm6pabK6b4KR01/k+N6Z1qA6bdejaVjADrUvUVGzBdAZeVuzRXUIP+CH+3ecD6CDKQXeurNrEzZrSSwHe3mFBzFcoZW9C1uOXGHfBPX9Ye0VzSrAbLKDiwyOXKEIdTHRH95g22SGoLF0PMNloMj3CtIVSCqXgin69YqxO8IHD/Hq8o0bdvOSpbBnJMJC/bVIyRKhxH8+nu0ALmfILL3lYHJgzBRWKrdxFk38KFPfajQo9ir05dNyTh1/K9H8/xRI2Y/RJJt7hmSzp1EevncrFaX0WCJPt/MljDeeghjGIiSiyQDeTBg/0yGg0AFKUPAxNkp2I+SmJ0dglfyrb2gJ9pEQOfc46i5c9oZ41HZSXvdFQmIH1EV0hJVbEaTW5sH9s8XOeZzWmru4MlL1ZXIHGq4fq5T2OjM5xjOsvHPz3EeW8gVW+6ATmqdZ577bybV9tQSGXaqxk5/Z4BefbdCYkrZJ+sjqeVirKYYm29Gw+OdCJHB7NznNgdTlewSDW2gHrr8bLJajGBPIBsKn22iFWlxB5wKEClvAX37QZHfnc8J8bIZxEBFL+aruhDadCuhfoBylo4mqHyxCHs6clIDrvaYQxsAO1yvHzGvxO0yRLeE5a/7AwQrFMnPahYho/TWZkWkTmcJqoVjybHTQHJRfx3i3GHiQOMD6B0weBYZfIV3NL/RTgJUxlDIdubCgIKlDM+kFDCDUz4TMyJn9CHCuWNeEGgsnkG69muVXTNWVblIkJjjHyjRxoyZsJ8ASwS1FzAMeUPzPq1bDoGWJ56uQl5sHqldGWB0hHYBJmzRZRikeMOODlGh0YFKuV1jkQMc05rzw78SJAq1JjiVyYKqsFVqdCtO9yj/iggyCcEwh5NwHl7LKVix3B4GEG9juPeCY9CDSUCM1/rmQXcGeB0W+2M52vMqqZioarOLwKuqFAVAha46U1w3JsIlbZsPZ9wlTKpAkIGhlOI67un0lls/kDPC2hYeRC/nwS2meka6+mkT2gvCBZXzcS1hj464oxs9XSsFRPhNZLDCGbQzFNOVjz17tUc/8P9wrITnSb/tbGeK6IUi3RZtsmJguWhRuu5NyzYcS+1QB8KuN4Jp5ceTm6xIDfUghgBMvkKpAc282GrGCuk0dGKLmgiD0N4njZ8v900tk2z8mFrlmlfyPhg7FoFwYkBBJgDTqVMOqQ47u5wBnx2pEXuDQVI0u/mG6YFcjZEQagtqEsLMeepmIoAWLENarlwfSGZfFkCZD255smwotUnUy5OYok0cNA2OvuJGVWgAMGhhX/ua2eLwE4H8tZGnXroy7OwQH+6jgS0QeqdMZ5Iw5X/0NJzzVhqgArDVEasFoHI/LQtPUDaB8TMx/ZgghnY7TqUKPakBwEwgDQMG7lqUJbXcUjVVTNNhUNXIQqyoVyRVk0UGj3gCYCCNtbXECqzk5hSkjeYBh6UvRC+HvVkFlgqIBHeyHuDYwR6nZEmyc0m0vCgkReKxqcaeGIKlP+AufKg4KjtD6TmbJFslaSNo4TyUujLE0nIoR57w6J3PTiPHndR943QqQbFuIEUWYL0QET/hhVYsL0ZL6RyeB6NVzbMIah+8ilB+uti2CoFXELSDKT6l6Toz8GJOcglYm2SYovciQvfV2u3sLX6xNd7sQOmlPM8s52zFlQFqBDijBq1JeUCpyNAuXm4hogoHa4ZEo1KaJNWuDHCgoc/8bGMsOC96GqyP9YqXM+980NS+VoXfJzsfUjLSSdZw1aigDV7c3gM3Ooh84NAkTkSnh4JOjtLwfZYCZthPBoLqNMs4ScH1OyIWPXxGAqkW7FF+chYitHLxfFsnSKSjRuANaqDF5oO4evNBSFfvSnWb2N4r+WmAvzt30GWx/5UDIFCE/JqZ3B2HhXYk+tlHZlqHEtK+bSr+RgD2JhIhMuItV1jMd4f8EcHTON5IaoQj1K212wHHKe+Ul3LjfoH/B7nUS+RfgN08vUlPJNVhH2oZpNpjQBDC2KmxgIULprtW5RN6ymuzlaAr4MfNQ4Rw3K6o4SRr2YljGZrBpcLTT3MaD0Gq5vhVtSSKhln9ducT/Ez3d57r6D6EVct50WgmXFYIq1e2EaG6+gkKtGou9ka6lUubCNGCx9y1PoaFCANf7IA/U4TeSrOAnFqqNlm2vOlKH4yiw1biQCFWttyRdS1JlhHPu3W0OCK8YOdBYLcPFCTUxdKs3isB9fs8Osp6mTiIE1JRyBSzZOEtuN+snIEy2gllsMmNJgo9EkY6clDONSK28RNtUgGOKTYJzdd03flVD9MNhaB097g0tiMzdx4lDp3KIBe0DI+QODjC1W6Rgh6LpN4FRS+tDucKowR7PqToKLSh8maaaiTSIrHhq3I0jcypSYxbUNzLspbf9svkW+C5ITZnspHXGc4cJnRKtrAo+axHlw6/4PU/daKQnMP8fHemwgYSlt2RksGx3pzVzNfTcVJFfCzYNI73+o4NNxzQXGCjsyrkEvWg6uxozZIJfYPkhY+4Fw75kBMnzc0SXbiatJrmF0tRlh+EoBmuw8CVGhkCo/C7476jJAksElO2WcmL4HvRULRbOUfW7NZJxGIQE1ma/S2XDHJMWcBW1LhEq9mt4oJr/XggiyEObFW55LW9GhrSGm/cM00ccq+XTA41pur3mpYTmLd5OspyCVN3mTi94dLFCftKH4fZKDTBSidD4AbJQIggyxLu5gCUmcO8PG/ghyGOGHFSaCwHgC4Ag0Locq3qetPgjUUW2+48G8/wBPoCFA9jBf0Ansk68lvM9JIFYDFiBQhOw/IVk69EePRKKT8B3eJdTLYrtCV25j31/EmqBeKbg/mjig0oFjkDNi7/aAGH6CzAemJd1MhKYkCnrnosG0iLCdA/GeYE1fTPjIg+YKTuuGbaRdE+p0pALdXivFlzaBquJhDsMwVtcILeBA3KsbBoNPEqu/0TJBUFgugrqZDjxoaJ6BGwwiQrfWnkRR0zZSBZ3mJ0fVZQK5OTIeYuMuFR/DJ2co80Jtgv1CMuR7H0tbTtV/g095zuFWMsZp4S0cmc1X6AF3Z2NpvKE9A9i5o3XRyLPUITKFL3k65SJDYFrF8+9WMseGfI1D5JxGSi4XZP8NO7BCu2D1v46nIEnSeZ15eZxJQVYDZEMhxlfUFVrTaO5I5jC28dOuCW3blEqptyJwF5IGTjfNohIJji8RY0QYr70t3QpHCEM7hCV7qh6z1nXGkEsch9J5wLqSyIvGrlRsMsq1ie+EmrgLctEhKSrP8cI9wuHY5XAInVg+yMM4TUiA7DxINgGYpG39IktXFDFJEobDaHBo8BBtO9RqT4DY2rig7rLxNeq3L3DPKJ/58c4AiUBueZSgkilAqBhRBLp0HsAsoU+eT1VA1IVHRfjo2jyWOTA5Y0UEwHnDseoEks/XezA2JEkp/woqB/KDcpM8QTELfZNWPlCHDm+257ic2UCi8mIkGqgm8egaCg1pUokquAfxzAmKN/nUqx0BFzHYxJe66OFQbbeSV2LAmX9WB8e4aE5esqmHIqmmcGKj91Dsym1x7uEQRgJ4FfWqh3oa3jGrOPA+Agh9XgQw0nlkoO6WENccec339ln3LVJ3BCxX4Y2vfQs1nKyrWeKMp2ZwpNnuc4cGl+hHFjO3Aqrn81zuSrR+ouloWuTMdr/TaIo0n2QkaMmZgssuhBpvDgKoJiy3cdbGBxrgNJtTSZ2TBwco0UukzQBLFE7sOdbR2AoWfGlq9I7UlBkLCAUQA+kQehAWt6Wllew6QUirJjxeKc15hPq24ENhD2QKsrWw189wEb/d61zOVw/QZI6Sik2ZCDRSsfIVEIkKhtNoNgzAMr9m0WyFKOh3AqrmigmxLIDrtagN149bLxRydW8UbPs6x89idQGWqbksaTVBEpj8Eme/RoaszrtqxNxhPsU7tBZVELufI8tqTBGbVY6X4HpErQ73rXpHiIvCvJh3fqccUFFeB86KIEL9yx6liC8ooIOdqeARnTnFYqzsY0sXo/bHqEwk3pCUJ9bFDse4mdRuPh6Fcp1bI8kvo5xlN/04Iki36DUjdB5wP0SnzFWfLiQ4gu2m0wCpT9wdUUCXm8NGpLHWKbLV17PT6e5EBaF8CFTo+u35A/apq2Br/q2dKXnZPVNgpeQYIqNq0HB9IKRKfaHnCIhf4m0m7lPD/f5Zi4qbogOVBY4YjlOxVUK7TK1JQCVQQkFGaNMJslbdRk6Qk8sg+vJ7uDlD5sR4NDfFM9SjdwQgb2dE7u+jyyL2ChrgGS/1JZBlb4gwLg/qES1oEqk6Aqmn3KL6YqU52jYDSXS3aF3UOtOxwbNGhRVD/jusHYdqUlZtw1k9eruZjLOZ2/UmptaOCWqM2qcoaPyxygb/SdinF4DeXM0LCpNbECu3JxiZAITQCM+ctCKgYaIUtfI6GuOnNsllMhoO9CNnLwP0Z0R3VvwkCX282JDljtayZuKmgP0wuS8F2KqkdGVitPBPorQsqkUqW2MFgZnXXB3C+Te5JCTJUBGoiM5CAumHK0FBd1LGFFylSnAv7Gc/nSKSvPSkdSX4y7Uv5eCPBsRgdi/5RaQ28wqE81BXIQ48XnjkdwuLlwGkM3LBARunoSSJbwvrYr1bz6UTg2XTi/gwG0HDiCio3bZ4rjJT3TviwZNWPuLSTfrMYtcsmsokOCgVYW70h1ES4tugtUC5sabw2IGkHVYsSZKA8FaU0r0D8n5K6TSrTxeoq9ggVV9ZPrNcLhLFBpa89KUNsuBwerwmoNoyTd1CqYTBjiOrfwGs5OsYRUEzRLzTriPFiRYraFTPRkMA90QCZG/wMXCOqqxsPabNNym0QRwadUZSxYgtlSNd0Va8F+UHRwfJHyzBdoh4Sswn8zx5USaKFXA+kFfX5ASXIuFsR2UBmKOtFpZ6ARHz/GCoRYoNJDWFC2K8/qRymV8+AFK4FNkvfWYAWDWs4olIDYj1pl2IGbBSy/30zW9u7EUDNKzLOKDNQESdfg+rVOUa3HPEtnJJbSZQ5zK88eYZrvViH3ZgubbAudxnA/6oKcuHEFQFZqEzVMOL/4aqG6UxUpmNyq4d2S7HSby8YuT2maO9mK1DUZ8KK+l5vQocwkdgjhSB58I1rBNCMA2RkTzvlRPzQzP0kXoiKOHADmIn1dNLC30B6lpwvj8ZKLEqeAod5sNQzYEls1/NRQ2FsMDWLrp6B16CBEchaiS0C1Vg9DMag/NESVQ3bDfZ98g+6/qUh9ao2SGbeNYaklMQmAe+jKYPi3A6O1DXE6vpgHg1KnhGcqb62MTtee2zjQ0IBnYx23oYB2e97HZKFc/P9MYbNVg4clkkFJnpeiDJqKFOj+9TpjyhlpUytqEOrRnV+xh6pbMWiatiSqxrWIj2gQPN9/OcrkHwFagC7xkiCuj6k4wGd7TLetbNAziv8szrbCrtcf1wXsp7u2y2/w6lZqxa2NxxyNvH79hyGlLaGC4vAad9w5XphLMYjUtQR9QedobZ8tLIYgyTdQ+ka0LtNp3TVB1QNKxaYBi2KbfbARrjED833BkE7tw1tbtR77FqTDCPn80kUEvIBs36juE3ED+nrax0Wq1GnVhapeByE2iOQuJHgIBr/SuZDS8XCJpoEqWcWqY+eES5GIMsd9l0XKo7SYV0cEl9AybYD+Ynlei2qhgUJeEG5W54x6hob3QmIwsXWfd6M5Do5CSrsx2RuYg0hZ8zJPl5kOWyVctlc3uOADSNKn/OGaDY9gddqbOGvSaawNiysho2YqOIB1gaLBiiqhzrXgawVErcXY6Ry7JK3LCc7rrMdtvsnMLF7FpBK5CptEvSoTHbd9SfXyCOUOmWB31LO0UBJ5uaeChyg3pWxA+mD6Z/v0B3HWJB8pYUYNAuZRMbncBP2IHoykWOX4DaMv9rCj41qGZ2oyquYgES8ZDSbK/JyZky32n4LVIqIKxTmYl1ApAVPjvWbMJP+cDaIVdg6XAZTqE+8cKMS4nxoRcB3XQ2C56gOhb0ybfJixHcYUWWVKYPYWzNQ6dpkyuuQjFdqCC73aZH7lkhaBU5DRYiQiRINQkQM2WKVqp5kuhdblIeKFt3R3AlpqAoNLivNISILEv1/HYmvt3C24uxOZ4TvMM5yZ1KRljsp1nWHsbwnuAn7Zz1hER/wIlwmseY7EbwDdOJe7mS5r2WfRxriui2ddkEqyKZyKNEI5dHEDkzUAKt890plBvLWEwFo+gYoR+UC8qHRn65Qu4ZaMaRI0+uNYHZPKH3cLF5zUm6PlwbYVESv2EUAppqdHku+wRSpWk4Ikemdz4QKp2PzH6u2CVVZb0jV9kA4sQNA8HM5BuWOM4Vaf8bJcwdUU/kGnWNfLVDrUptaqiBzvbKNAJ4aJFWqt7qkaBlo5wl6R0cJbZA+dRwOelNtrlZYeSFkoJ47si2TPhmsgQ7XnJRaIJkARbV7l7samdyZkHBVN3K0YNV1RtbuEBJ1dqhnk3GSO7PSDvRplecK0I74zgdiznp4LhoSePbVRTRBuspzh0W23rU1xDXBM+vmKxA4XcpEDncunEL1hBqKIc93NhkoFtMvmlRLqgugHozxkh4PwF5Gb8kZIg6qDtFrXIz7pwiJ93Y32BHcx3okqs4EyB+ikLufSkCsE0kREM2DRu+020bSchrW4SbPQOZcgWSAXDe5g0E5D+0Rk7xjAx2VEchdDWp3TUAmClMqCmp/fN4YbIrGsaZabcuglj7kSRcigM80Cilaa9wwpY4cxILIfOQJqQJlHDgBr6mvsOw0PzLDahhyBlCstTmiI2UCdK6jJxwpfckRtC/NWVVlAH81f/uBGwvMtAvV//uMObFmFNSPDxBFqpW3viobC+0ykmb3Z5WVV/IZn4Arn/Z6R2w5/6yHI9Ne6x2Zh5O7PzySBNGbD712QbBhDRWDJMnKX1qapfSTmCKZsmgoa8bBqZgIFAsyXRl0PaHYGq1scNBch3WVjB+9O67OHZIesXm2mnTrWV99Sbi4UhcU6NxjzTk/YlfvZqDUvcHCUu9SBPXOuVSL4zOPYMA6IY1aXxUHoCZn3jtXBdWQoHwjuPLOAfsf5XtMegiP9W6617u05u2efx4BE7+PPeqUNocPNcvL0iy5COBfQ20446Dzew2ornjFnvhgVikdx2s3YCbeaknrKngAaFhz7omt3XGoQqsfVEC5DpcnAVV1p/3uwJHVu6mg22UU9Q5P9kf/d/nC1l3Cz3i7zzyULvNYWfl85LveTdrV9lC9I2U1B9W7RFV++7tWkszkQtS7TnrEWPo95PkDiRyKxsf++IQqeJlGJ5AQiBmCDrgK64vXqwmqpWBXi3YSsixCwIkbtkZBXVCBqnOBiTmf8qB3G0Xe55R4UCFzvm94wbbaJRXLHOvd3E0xV6+STXpMCUajd0cdFejA6v99bqIqVY22WUCt2VFAQKke2tWwSsRUTIqwTvA6UD3nE1m41MZYrYLq3dyQXrj+dP+DE7nhgsHtpIq1m/em9cTXBjvuoAnK+0Z+SyckQ9QErE7NEo4X3LRhIkwPdVIuwq4WN/LinooucFFa9OCKbJUpAtBrVXOusPed6mRzXomH9NRi4IFnVDWVI5YMN+TrXO2zTt0CTy30EfUNrN8QI9CcT31d4HLhsyumNUVEMjePFHFjvncYWakRRaD5lHd1FZiEp8B612GHAH0sPXYMnSuafZtQkecFBDNm4qF6KuUKcLGWBE5DmwQklghIX65RebLiNhEA5GE4FlOeVOh3BiSdFlR7PiJsYu3qRiCozDdcZdw180l/WVVLG4I4PwRqvvUGYHLfeIHbCTTje/DJrNxg1YJFV3I4UWyCx1DmPoxqXX5PoLlya6eCT+QbwOPLdDwISk1Y2Hi8vCXYQqWVIwoNyhJgJxHPIZAEHKpwYapSKteOlou1iZ/EDW7acAL6IN4hoCzCGs7Hw7/0JNMS1hH1DmQEIUIXYaBM+GsKN1WfffAdJsOqEHzFCsCGTUyxJii7Icly/lnTfLwVmulNVpsoUIRYAWum3qZ96h0IzMooOSbK3tCb00xQrdDPFVkvuo+DcpM+L4SnUO9Arq6CXR9LzE3vkcp7PpAmrb92U1fkQO8s1t1+qeePsidq6VHZUadWldZhBwoHdBuF6OC1N59GhBl2gpFDs6imzioRSrB+QM44jCzwomq2wTngu7bqLhWGtELkRakmKR92bVOh2kcT5K0IbPLQdG1rmo+f6iMHxMDvHwlIMC1R0flcOI+dqgVbTYCl1A7vVzx4axjL+XAzPb8Xin1a5VnvVKbwne2qZOk4BEWh4aqQF2wr0IVuDE7SpeZY0TJJhXgO8aTcZhemTqSBAV6soMy6mANYBp2goIsFaxaay6UfF5Xqxgs3JC04NEODGHQmy7MAllUKfVpfCEOOIbLJlC5/sIJsblwWTo0CXTkilWF6V67GAaoq+2ihj3+kkF1xQ3czAtuR5E9c0opOmVEp52iAHzsLaAYFVPcczUwHLXtsDXj09tIh62mJ59ccIqhH+VX4VEPAUUYNP3EEVX22ByUS8UP0ucGT4Fq215N9+3iABpqjsskRwTOvwmlofWI9hWvuAB54MUheqolcn0X8JFOG1mWdBeRQ1XFsDUAIMm7DwROqLpn5xgsDcJq1BSwIAZrvrS2xSNLXWacvuFWgiVd/fO25ySzPFYXOs4m2zP1+Cho/sOqevc90UlUAxKaN4Fq4N9k5KOEJtNuUdLAIDvwIdua+cNHwZ3PF4JzDv/bV3Wo3yhdH2nPHwsyGPd2Pp6ByJvQvW9TAbecHvcCkTba2hwvhKH803GlLtU1iBV1RpbL1PBILc7jwNhHG1klaw/eCkz29DYkNbA2KE1qjNRbtzybCoHCiD1GuQmE41XWB890VIglSpOUKWoVFsUi4CNw8ZstQWNIXnC6dsVZQgc5CPrZPoXGwtjskMkCGHDSR9Rk0DY219yu6yAZeRhel2eyggx398FzzNn704Vq1FVnsEkZh7QEPe/zaxEcxOAfrClIyHpLEoJ8PyBx8NWHi93UyhJa8XzH9/GMA1+jGrlwsPJkcAhv5CUwVV9T4sXBMtbzJmOsrV7AWE6Pm7mFOGHnDvjeeENFkafNX2IMnV6XGs1iqO3DD0qaLaDgVWufrwMZShGrqpRVuiWA6KW0C80fITwyS1bHYRANJ0Ps9Bx3gew4XRt1bo+rQHoKo3DQ6A0wtQ3sPixFbJlneH17gyJP4QQ993tsdssRlcLuTzFvSHqCVW3vAHU+sbXBJYWMjAtyZMBx7funm62A6Bw3JV7MJKgK5YkmbqIHxTdhOcEOA6vvWEG8hOYntsApRqCoNNXVAN1paEdxVquFOzriQWUotmOEqpkhiW3M9fIgnMzkob8MuNjrWu3TazfHkKdSBmMwjy7TMw/VbRRIuE1CaR4PgkPKBtpHD2VrIT4zjgD6wI0FaknRn0+gVwoWBMJJ+7eWSqCNnfOq45mPP1SVvEHKkL8PSjakkRtu1jG+QQCyoE4I2LL/kHiw1ZGXLxvRxCX3jDmhESm/MWlRNjegJDVBGT4ISqK+d+/3KqU86Y89ZlSCQDfKTqKFJuEkU2B1YIZv/SPyFTmWh4QO87a4Vv6a27E9c6mqjocodb0AGCzVOw5F/jf8Zaq2WEtNyx0loW2whz1pXo+6JU5oa7R3e1pG2ndksqDbANePFyIRAFnp5gtUl47j3KH3mFbHhAVeUV7VwgrJEGaaDK+xekzm+hi18YizXslpfeWt3ppti4CQIGtPUEmIDkRlYDWD7BLSaNDIPGl2KkPSKrjVih56E1Q1Pufp2LiemrNmqvKkG+W2Y90+x6cGYGHS6Y0WKHX09f4aK4cIRreq6x6LWtNRvHFch2l1IV/RY0+46dErp/o6oolrI5UqVur//dUp6HSoK3KwEaudlNX9LNLC/GugxK6UUbKjevNvMdqdC0r0sdN/1A1xT9F6Bui5LUVk7IYNdNkCiDXuu3YoDvbByOlDfNSzmM11t4okUSdquiRbD/Zt+Ye/MdOC9pkQLnOe66wPPeDFCMwA/k5VzV3xIEswtlHG9WG6uHGFrKuwSbhWBayySRB2Cu6QCG7T82Uu7W511tmcNgayVSDk7cc8tIIltrNX0/RM00jBinls496WmRmPT2ptVezd0uX/QQL8RaF4SQUhhkfnlBk5gTtUQbQlIJ6GawVYfE6mDo4PK1WmQGkyvAa6Kt+pw9DqmEbHVszMz2BZz726rKwVh/qVciI8EvENgzZM2a5X8jQTn3ZnxeZLCDdALL/VcMgbIFKijxVSAmcK90XmO8gXZIf9M4Kqxm+SnJGhqMBhPZ1ORyXSx5nBhq2Pt+cs79ZgR6+IiuJtYMo2p3EGIKVqHbpu6WcndGxYPYg1R02GnlrcKyHRpiwtmHoVXqwCajETXrRzfizreZBmZUlvRHZFiMrxo64/3ziqxKk31Yx/V1Buop3LHoVlgQrW7OpGFVgdjtgKVVItaZKAqJPc7lNxHtef6nVPYTt1RqkMWuu9M6MPPIesYLvaFb3d1MmXrzwpbxmLwaHkNYbIE0kl27MyoS2+C+A7djuQr/IujAnYO1y1LbACNTn+v1PswNyc0mUHpVVfCJKFWsnGA2bWOh762IZ1vvWmdIiLE1wGZTVy1bzdeDCo+MRtCJAOhVWXBVsG/M7zJYi6joeh4tnKBrViF5UJg2hp2oeuXuMvKeDdQCnycMHsFH6Px7nBiqoY4DCmolBl6HYJFPOVtMkwZVWiLFRRRC+p3xeAmI7GeL6AMFNpm1o2WgLnjGWhdM3bvdyK6Il+H6jmU9Zg57j72bSf4sbKnuQvo+YelF7gKn99THKMypzsjRiO+ROtr5FktFL1g4wYjlBdj3zshzqd3l1WFeKyV4R12HlBseqPV7qg5XFwuJWKTOK9oU7F6teH9s76BEHPbuoBjvG/BMeGUVmweQGEpXeJoosrATZGCRsjux3C3D3uDycoKFwX4oBIK6OmEU8VxJxI6m4NmAZE0inoh88oRrP42y7hdT7G6lzig3OzsRyrtGt5lFF7TOXa/RbnZhZzgKfKHuIgP6I5hl5vSCJVlaoL3EEM2B6rEjOfUIHzq/Zuppd+dAovV9iDjbIFdLZDFG6apLOz5EiW+ZkuZ7A/SG8QIC/bFToPZ0t5tGCJby5AV6GY1UowGNbRmCe1QbdRAeeyFrCXYeezBRjtfCrQqFNJmtVIeOiaQbTSFjWZi+fF8MR3uZTAcz10hkoQMLVCWBISWlAps5+G9/pCFDkxrQZN16Ky15UvvfNdLB7x7fqgpDbVyMY+7mrXTJWhnZduHYrUOxWoxOeciEYb8rldNR/sO2z8E9o+AXUR4H5V0en2VWi7pyBI5tPS7RLPKeukD6vdnx5zkYEcbTGE/GzuptmIVP72DcQ736gU2O98UXGvkGk3UoVu01ZdWOKwB3aCkCdIBNx+wE7EjoNI4Uo0Y2PcwiVf2a5liTBhM2HAsQLvNZDYZ9kDZA6jzVyCewd4aAYV8FyOnqi0oOVM54mkJdNcO9AhcHmMaLZZZj+nMFsQUp/QKLAhiS2RnLjCeatiTI+SWwl5vgDoyS6HT02Z7HwG818Y22uHN3KlV7crPlvF++/R349mSXRck3Vzd77vKERkTx/0jvYtSKsONqqlVA87wUllkAIFWfXVb2Mlz2S284RhtdPfYroK29HZWOCr3PFpc8TYiNrHiZr79SxXo+ZYBCKgZ9o7NRnvoB+7XbPvUH0xwln9oQwX5/CXiPbnhe9sK9qMOXXxKxQKSyEF0bunxHeorGIf9g2tq3AD17XbDke66jbwLMhYty/A0vgWdDpO3voFl1mM6lKcIshDcM5GTcIlpN2W9ntJtn+BuF7JXUIDN3oKuMlkqZdZUT/sFg/MJOlymxMgeu3XGthMVLEcA6Jy6hBoXblKkWav5CNgfWXEhJtpbLabQ/TTY6S9F3F0O0PxUetw7ZZ4r7b9QGG7zTKGTaCjRVi4WzFCq8D4Imi8oy7Jcafac6x1OYtshlqxjnTos3lBhYScmSzOR5OEKZALECAvO+3qlK+oZDOgoueOpye/jZ0PhDjwOqQO0UAZUH/XzDymjHaKmjtmOFAsc+ns9tAJKCSUzWJb3mWDX33ROjSq93+xQhUh+QUL1T7VmZxD0xCH/AxvThk3F7vNe61FVgZcAd8sLWQBNrFD3Ve+mc7Fd6GIyODMk/XB6FGXBS8T7EcT7GGcB57S7AzRQXeKS6UQnm5CbeaWyIt3wsEPrWrSDWHeRFmiuSL3VBf29RnDsYAEcr2Rp76oe2t/pw4Pt8dD3TTCXGKFdAVnINJNtC2MBvTyoaom9B9SJT9AZZY0i9btTCCheZMTOPlkt6NOlcwzYieDOX42g/yaudAFS528Q+G23Jz8IY2ENJxegwRwcSBTh1KShxw7dfTfWi2idumNh+xT2xcOSuGpWpDEM7SX1qgrr6qDZEhT5bZVzhXB6J8DNjlpR7G3Ru0MEoys6hpcyNxFys0RFH0JhF7k1aB6sSkwprOeoRNpApbunfqjCTj/jvZ8VJo8MeDE2MO76hzb2F9WUEtUBpcRTWUyh8jvJ04O+D1IV3ObjGRyru2O1VD9aYBK77jzOc9BSk73YVgO3v+UlADfHoVktCfY7WzQQdv0GP41VFhRjdVq4q7GPpwEESqAaaWtrLGNhSRv01BtOsOOZsHfOJiO4x5jS5nuIaH+/w5byKKTo6YkrK9fJdn/V+O5eq8MO32y1WXN78HByvXYUfO62wD5hg+QibAp26AzGMzyrorzq7LZymNngOJNO5kDFWstOxF5GEz9SIIpfiSzY7Wl8TTFJtDbm284HYW8sSOh+Z3O62YCC97BuOOj3ugfRHnShF8SFY1SyNMS/9BpmRYEDFl3JAZM6cLCTRNUMKx/BmEwcxHI12X67giiv36Wgk/6pdJq9Mia4f4oZbHecgKbH2SBAB71ypKLrixFi6Hwm7Igeyo4NMoIUyDNhmqmfbE2sdzx34mxyK+pFqIFgPDAfBbamPpmB7i6DLENIcw/g/RbBbW6iUej2uXrBHIj2fmdze6UF1hlilhfbZ9tf98wECmXTnaRShl00EDBSpARK+NPZimVX6/b6+yF08RjGeLG7QxZphXLT7d6A6cSD6WzQ0M42CO9nNzZBo4zcjxhqUQ/b6jPaVl3LGzhgUbeQ6WCd6zjTckuo4MI4uxVy/NCBxCtmldJJsrXfAZ0/XuB8ZMi333Q8su5EO0pP89TyAG5ASyL5Gn8tU1BjBYg/8o2Ni0fYdPgFRDdwOgM3rVNFpsAjSuKlGEdpiEYptPfYlz6UYJvCVVKFnR87bq/bpDquwyEFbBUDuFK5XmHY8aXPgeVhPIDSVqmEFeW4gd6/RsfW2vQNbQHbwO63I/UHy657xLKvYRJILEcRui5hMRNSo3V9xUtTBUZiNV4WQVfz2cSy0YwLsD2QCuxSbg2moaCs0wGha5dATeH5VOwvgacC68VcVgqVVoQAfl/Szu4AMjBsu8loDK8RdWFW2t16R8bDFMN/gqxjdz9iH4OicPvhJGgXMUk2jEtZXzO6IQ1qHmO++gY+adkBx445iLpxn2/VSla1bkIcfUcmW+SK9+EdP3rp+AM+GugTmvCAT1GemMGdCA/EEe1E7AjAaPyE195vVKTgzmCBnJZOZRuF1IblPPjYhYQE6Fy+QlXbRCyKDQvrL8JTOYvFu10LlpRqkB++YqG2BpvOl3sn6rsX7EnfhbIKXx0lAkCbumQVGHZZMNXf6LJ7o0uBn7i1u7BMUd2S9dR5VCd1DbpgwHu/LWjAsCxn1PTCKjI3hy/aNZ5bg7+mE10H/sJ0iuXjsZe6tL7hlAIfdKBoX6ZIJRaWs0HLLavF0pGzePIXsOkUt91KodfvqAc9FPgUp+73XTnXGCyYLPEQkZ+tVxBXYtvVFuztEuw4uC4wNMP2idUowI3UbPfgAphYdhC3vWQBKT3o/UrnQkTISDWczpfB75+w9w8Ti4Xw758qXC/pDWmnDXoJsA+g+np0imy/78qZMMdAFnbcmdNxyF4HdGoe6xERfU1hyaOh7A9+b6wF09PjsN8JXghMO9xsLFR1XObWQaZC6kdDbln4XqejTgMMCjfcotrhHrKesJvjOv3doHeCDGzHfvPDPuO0B16mFPbeEfq9kOXv7HcDaPtbJgiJItxX3P6RCnlFAWXpqXaXdI7TSfA2UIETvH2PDh8f3eCYKxNjBNsSAimaETZnIlicC7RwfTAK3GgqU8oDbtOUBub3Lu0zUFl4qL5qbbb77MU6bP8u60Yo4OZum43XcxSgv622B2MdhqxLNc20hN0PMYWmwa8SddYOKIMRJ6dmrNSgU9jcdg9Vwc2M184aqDVtmK5aLzIt8wLfP+ypUDroWt7yDlJZUFhv6LAHWTZ72ex0rLFQo/Eo3G1lZAy7XYdjWVVxu+7p8jZc0gKb13RRcLbQaGrgtybAX9/lNiWYX5+dzNSarMNYicIgstv34BJI6I7lpXAjk9d+MJQRG2QHff3ahFCzjqUk3pOyY+v1NQXte6Nun7UGXqjrW7nqv4zFoY4MLCZyTQenyIm5RaAzHqMBu9nKcB+jIfN+OFKxUJVBD/K/K0Uvze9PwqY8QeshzDDY9w7Q7XYFhyQ3KHiDyvZbN5oK9NQrnbgmkrjP0HsatrNdk3Cj3aDJEjvr9qcsSLoaVoFAY6KmCvdW2a0mpEQB+p03bKW8aduuituHv0h8j4ltifXWTEyVkGI8Xa1254C7egAldY1RV+NavRL2NmurTcu8Hr1/9gF2eTrovN2/7yR2QnKLdRqufQ8iLULrFegvaLxUWTu1To1KLhUuFZC1xAW7YdDLwB7xhU4MvpFc+FEIJicCXdjsfX9lPWpNp9AO8nugvR+ndudgG6Cn/ICDKqyYIxZu5PIXHmhps/4XxlhKkwl82c5nCvh+FqnDnNvWsFO8zW50PBRjpsC7vXkiSfa+Yt9kR7NF6aUr69s4PKrtA+s7YV/37StN5R5YrwnLodMGpkLWV8IOrxbeb7ydj7bB1lPDBL7P2N5TZ1fZAnux1r2HYkFqShmK1oBXuuXdie6y/ROk8yP0u7aHvR/7qzhoX5UjxFVMgEU8YwXaP1gDVQJetnWHb8EnM+vpbro2GV7LPIwwg/ezmmU/S3viDMcbAR74XmA3JFvDnzRJDMkrxMJhS03nHHYiEfhMY5z1ZNYbWxGjzNHs5Yvb+8m5xrp42lOkldhCZ2nbQ41JtKC3a/Wzubx314w3Rb5tvGy2Mn4MJ7ysjZvwHgZsBe8dSazJBGzJRhO7PTtMnKlkAV2WaN/mFbhn7EHvacuNrd3/7gs4nz9cOTN7P6oVNlCxUg/YPiK12NzYukbvbNbdo/6AL28zlU1v9pGxGhh+qVPgfSdtoKhe4HshsHwqHc2WdeVZHc2AHTLSOwn+1qmOFVuzH1sH6mk7nyJ+NQX9UG4Ltb/bsz/vx6hqfItCLR/2cw0tXizZN0KlVMQeM/d8ikClPvDtC3vulk4EbTSRYkBnP3XY2Pn7f+Rd4EIpcF9V3D7X5QyMba35TW+9V4ZpvMDwlzDwEXwcBO9BePjBVo9wJwrY/aFn0p5HwcTY2octa4Crz4hbAkIdfOrVbOclZrf86oAzU3j5QcNW6RQuoi251dAfQA4bnZ3uxWX3GXcXWNn2cXuV12f30G02ePBeNLv8+8Vhy8NLcNqDontr5x9Elnyf58/RIiPD4etL4XMnERHn+0wRPY3PvMZ7wEXoDN8IkYVfQ4ZZVV1fZWRv2tXceeG+8xbXaPeIx0tXtR5xAftKjDZ7zN5a1Z9c/A3/8R/yH/mP/Oc//uM//kP+I/+R/8h/5D/yH/mP/Ef+I/+R/8h/5D/yH/mP/Ef+I/+R/8h/5D/yH/mP/Ef+I/+R//zfHAEA;clipPath=inset(10.95% 36.67% 35.8% 30.33%);" vertex="1" parent="1">
          <mxGeometry x="-37" y="344" width="66" height="60" as="geometry" />
        </mxCell>
        <mxCell id="4ikW2BazAHk21ai5Y3Cd-96" value="VSCode" style="text;strokeColor=none;align=center;fillColor=none;html=1;verticalAlign=middle;whiteSpace=wrap;rounded=0;" vertex="1" parent="1">
          <mxGeometry x="-37" y="404" width="70" height="50" as="geometry" />
        </mxCell>
        <mxCell id="4ikW2BazAHk21ai5Y3Cd-97" value="Github" style="text;strokeColor=none;align=center;fillColor=none;html=1;verticalAlign=middle;whiteSpace=wrap;rounded=0;" vertex="1" parent="1">
          <mxGeometry x="148" y="603" width="60" height="30" as="geometry" />
        </mxCell>
        <mxCell id="4ikW2BazAHk21ai5Y3Cd-105" value="" style="image;aspect=fixed;perimeter=ellipsePerimeter;html=1;align=center;shadow=0;dashed=0;spacingTop=3;image=img/lib/active_directory/user.svg;" vertex="1" parent="1">
          <mxGeometry x="-57" y="455" width="30" height="81.08" as="geometry" />
        </mxCell>
        <mxCell id="4ikW2BazAHk21ai5Y3Cd-111" value="" style="edgeStyle=segmentEdgeStyle;endArrow=classic;html=1;curved=0;rounded=0;endSize=8;startSize=8;" edge="1" parent="1">
          <mxGeometry width="50" height="50" relative="1" as="geometry">
            <mxPoint x="-7" y="445" as="sourcePoint" />
            <mxPoint x="143" y="585" as="targetPoint" />
            <Array as="points">
              <mxPoint x="-7" y="445" />
              <mxPoint x="-7" y="645" />
            </Array>
          </mxGeometry>
        </mxCell>
        <mxCell id="4ikW2BazAHk21ai5Y3Cd-112" value="user push code from VSCode to Github repo" style="text;strokeColor=none;align=center;fillColor=none;html=1;verticalAlign=middle;whiteSpace=wrap;rounded=0;" vertex="1" parent="1">
          <mxGeometry x="-100" y="532.36" width="140" height="50" as="geometry" />
        </mxCell>
        <mxCell id="4ikW2BazAHk21ai5Y3Cd-113" value="&lt;font style=&quot;font-size: 21px;&quot;&gt;CI/CD pipeline&lt;/font&gt;" style="text;strokeColor=#36393d;align=center;fillColor=#cdeb8b;html=1;verticalAlign=middle;whiteSpace=wrap;rounded=0;" vertex="1" parent="1">
          <mxGeometry x="13" y="655" width="140" height="30" as="geometry" />
        </mxCell>
        <mxCell id="4ikW2BazAHk21ai5Y3Cd-114" value="" style="verticalLabelPosition=bottom;verticalAlign=top;html=1;shape=mxgraph.basic.rect;fillColor2=none;strokeWidth=1;size=20;indent=5;rotation=-180;" vertex="1" parent="1">
          <mxGeometry x="18" y="805" width="880" height="150" as="geometry" />
        </mxCell>
        <mxCell id="4ikW2BazAHk21ai5Y3Cd-115" value="&lt;font style=&quot;font-size: 22px;&quot;&gt;Deployment&lt;/font&gt;" style="text;align=center;html=1;verticalAlign=middle;whiteSpace=wrap;rounded=0;" vertex="1" parent="1">
          <mxGeometry x="18" y="815" width="140" height="30" as="geometry" />
        </mxCell>
        <mxCell id="4ikW2BazAHk21ai5Y3Cd-117" value="" style="endArrow=none;html=1;rounded=0;entryX=0;entryY=0.5;entryDx=0;entryDy=0;" edge="1" parent="1" target="4ikW2BazAHk21ai5Y3Cd-90">
          <mxGeometry width="50" height="50" relative="1" as="geometry">
            <mxPoint x="213" y="595" as="sourcePoint" />
            <mxPoint x="273" y="645" as="targetPoint" />
            <Array as="points" />
          </mxGeometry>
        </mxCell>
        <mxCell id="4ikW2BazAHk21ai5Y3Cd-118" value="" style="endArrow=none;html=1;rounded=0;" edge="1" parent="1">
          <mxGeometry width="50" height="50" relative="1" as="geometry">
            <mxPoint x="213" y="595" as="sourcePoint" />
            <mxPoint x="353" y="555" as="targetPoint" />
            <Array as="points" />
          </mxGeometry>
        </mxCell>
        <mxCell id="4ikW2BazAHk21ai5Y3Cd-120" value="&lt;b&gt;Github Action&lt;/b&gt;" style="text;whiteSpace=wrap;html=1;strokeColor=none;dashed=1;" vertex="1" parent="1">
          <mxGeometry x="299" y="665" width="84" height="30" as="geometry" />
        </mxCell>
        <UserObject label="&lt;br&gt;&lt;b style=&quot;color: rgb(0, 0, 0); font-family: Helvetica; font-size: 12px; font-style: normal; font-variant-ligatures: normal; font-variant-caps: normal; letter-spacing: normal; orphans: 2; text-align: left; text-indent: 0px; text-transform: none; widows: 2; word-spacing: 0px; -webkit-text-stroke-width: 0px; white-space: normal; background-color: rgb(251, 251, 251); text-decoration-thickness: initial; text-decoration-style: initial; text-decoration-color: initial;&quot;&gt;&lt;u&gt;&lt;br class=&quot;Apple-interchange-newline&quot;&gt;&lt;br&gt;&lt;/u&gt;&lt;/b&gt;&lt;div style=&quot;color: rgb(0, 0, 0); font-family: Helvetica; font-size: 12px; font-style: normal; font-variant-ligatures: normal; font-variant-caps: normal; font-weight: 400; letter-spacing: normal; orphans: 2; text-align: left; text-indent: 0px; text-transform: none; widows: 2; word-spacing: 0px; -webkit-text-stroke-width: 0px; white-space: normal; background-color: rgb(251, 251, 251); text-decoration-thickness: initial; text-decoration-style: initial; text-decoration-color: initial;&quot;&gt;&lt;ul&gt;&lt;li&gt;Configure secret keys&lt;/li&gt;&lt;li&gt;Build a docker image&lt;/li&gt;&lt;li&gt;aws.yaml triggers CI/CD pipeline by configuring aws credentials, github action runner&lt;/li&gt;&lt;/ul&gt;&lt;/div&gt;&lt;div&gt;&lt;br/&gt;&lt;/div&gt;" link="&#xa;&lt;b style=&quot;color: rgb(0, 0, 0); font-family: Helvetica; font-size: 12px; font-style: normal; font-variant-ligatures: normal; font-variant-caps: normal; letter-spacing: normal; orphans: 2; text-align: left; text-indent: 0px; text-transform: none; widows: 2; word-spacing: 0px; -webkit-text-stroke-width: 0px; white-space: normal; background-color: rgb(251, 251, 251); text-decoration-thickness: initial; text-decoration-style: initial; text-decoration-color: initial;&quot;&gt;&lt;u&gt;&lt;br class=&quot;Apple-interchange-newline&quot;&gt;&lt;br&gt;&lt;/u&gt;&lt;/b&gt;&lt;div style=&quot;color: rgb(0, 0, 0); font-family: Helvetica; font-size: 12px; font-style: normal; font-variant-ligatures: normal; font-variant-caps: normal; font-weight: 400; letter-spacing: normal; orphans: 2; text-align: left; text-indent: 0px; text-transform: none; widows: 2; word-spacing: 0px; -webkit-text-stroke-width: 0px; white-space: normal; background-color: rgb(251, 251, 251); text-decoration-thickness: initial; text-decoration-style: initial; text-decoration-color: initial;&quot;&gt;&lt;ul&gt;&lt;li&gt;Configure secret keys&lt;/li&gt;&lt;li&gt;Build a docker image&lt;/li&gt;&lt;li&gt;aws.yaml triggers CI/CD pipeline by configuring aws, github action runner&lt;/li&gt;&lt;/ul&gt;&lt;/div&gt;&#xa;&#xa;" id="4ikW2BazAHk21ai5Y3Cd-123">
          <mxCell style="text;strokeColor=none;align=center;fillColor=none;html=1;verticalAlign=middle;whiteSpace=wrap;rounded=0;" vertex="1" parent="1">
            <mxGeometry x="239.38" y="675" width="180" height="90" as="geometry" />
          </mxCell>
        </UserObject>
        <mxCell id="4ikW2BazAHk21ai5Y3Cd-124" value="" style="endArrow=classic;html=1;rounded=0;" edge="1" parent="1">
          <mxGeometry relative="1" as="geometry">
            <mxPoint x="405" y="691" as="sourcePoint" />
            <mxPoint x="533" y="691" as="targetPoint" />
          </mxGeometry>
        </mxCell>
        <mxCell id="4ikW2BazAHk21ai5Y3Cd-128" value="&lt;font style=&quot;font-size: 14px;&quot;&gt;aws.yaml&lt;/font&gt;" style="edgeLabel;html=1;align=center;verticalAlign=middle;resizable=0;points=[];" vertex="1" connectable="0" parent="4ikW2BazAHk21ai5Y3Cd-124">
          <mxGeometry x="0.0106" y="1" relative="1" as="geometry">
            <mxPoint as="offset" />
          </mxGeometry>
        </mxCell>
        <mxCell id="4ikW2BazAHk21ai5Y3Cd-130" value="" style="rounded=0;whiteSpace=wrap;html=1;dashed=1;fillColor=#FFFFFF;" vertex="1" parent="1">
          <mxGeometry x="613" y="555" width="270" height="210" as="geometry" />
        </mxCell>
        <mxCell id="4ikW2BazAHk21ai5Y3Cd-133" value="" style="shape=image;verticalLabelPosition=bottom;labelBackgroundColor=default;verticalAlign=top;aspect=fixed;imageAspect=0;image=data:image/jpeg,/9j/4AAQSkZJRgABAQEAYABgAAD/2wBDAAoHBwkHBgoJCAkLCwoMDxkQDw4ODx4WFxIZJCAmJSMgIyIoLTkwKCo2KyIjMkQyNjs9QEBAJjBGS0U+Sjk/QD3/2wBDAQsLCw8NDx0QEB09KSMpPT09PT09PT09PT09PT09PT09PT09PT09PT09PT09PT09PT09PT09PT09PT09PT09PT3/wAARCADcANwDASIAAhEBAxEB/8QAHwAAAQUBAQEBAQEAAAAAAAAAAAECAwQFBgcICQoL/8QAtRAAAgEDAwIEAwUFBAQAAAF9AQIDAAQRBRIhMUEGE1FhByJxFDKBkaEII0KxwRVS0fAkM2JyggkKFhcYGRolJicoKSo0NTY3ODk6Q0RFRkdISUpTVFVWV1hZWmNkZWZnaGlqc3R1dnd4eXqDhIWGh4iJipKTlJWWl5iZmqKjpKWmp6ipqrKztLW2t7i5usLDxMXGx8jJytLT1NXW19jZ2uHi4+Tl5ufo6erx8vP09fb3+Pn6/8QAHwEAAwEBAQEBAQEBAQAAAAAAAAECAwQFBgcICQoL/8QAtREAAgECBAQDBAcFBAQAAQJ3AAECAxEEBSExBhJBUQdhcRMiMoEIFEKRobHBCSMzUvAVYnLRChYkNOEl8RcYGRomJygpKjU2Nzg5OkNERUZHSElKU1RVVldYWVpjZGVmZ2hpanN0dXZ3eHl6goOEhYaHiImKkpOUlZaXmJmaoqOkpaanqKmqsrO0tba3uLm6wsPExcbHyMnK0tPU1dbX2Nna4uPk5ebn6Onq8vP09fb3+Pn6/9oADAMBAAIRAxEAPwD2SiiigAooooAKKKKACiiigAooooAKKKKACiiigAooooAKKKKACiiigAooooAKKKKACiiigAooooAKKKKACiiigAooooAKKKKACiiigAooooAKKKKACiiigAooooAKKKKACiiigAooooAKKKKACiiigAooooAKKKKACiiigAooooAKKKKACiiigAooooAKKKKACiiigAooooAKKKKACiiigAooooAKKKKACiiigAooooAKKKKACiiigAooooAKKKKACiiigAooooAKKKKACiiigAooooAKKKKACiiigAooooAKKKKACiiigAoorkvibrN5ofhFrjT5zBNJOkRkUfMqnOceh4xn39aAOjvdTstNQPf3lvbKehmlCZ/OsdviB4XR9p1q1z7EkfnjFeM2Pg7xP4ikNzHp1y/mcm4vH8vd75f5j+Va7fCPxOse4HTmP90XLZ/9AxV8q7k3Z7Fp2u6Xq3Gn6ha3LYyVilDMPw61fr5m1LSdS8PaisOoW8tndJ86MG6/7SODz9Qa9f8Ahj4xn8Q2M1hqUnmX9mAfMPWaM8Bj7gjB/A96TjbUEztpLiGJtsksaNjOGYA05HWRQyMGU9CDkGvGfjFpX2fxLbX4XKXkG0k/30OD+hWtj4LamWttU0t24idbiJfQMMNj8VB/Gjl0uO+tj1CmSSxxAGR1QHjLNin14b8WdQ+2+Mmts5jsoUjAzkbmG5j9fmUfhSSuwbse3xzRyjMciOBxlWzT68N+EmofYfGn2XOI76B4yAcAuvzL+gb869yoaswTuIzBFLMQAOSScAVHHcwyttjmjdsZwrgmvOvjNqZi0qw01W/4+JWlkAPVUGAD7ZYH/gNc/wDB3SvtPim61DbiOyt9gI4y8h/+JU/mKfLpcL62PaqzdR8RaRpDFdQ1K0t3H8EkoDf989a4b4neObrTJxoukTNDPsDXM6HDID0RT2JHJPuMe3n2geD9b8UeZNptsphDlXuZ5NiFu4zyWPrgUKPVib7HtsHjvw1cuEj1qzBP999n6tituC4huollt5Y5Y26PGwYH8RXisvwf8SIhZZtMkP8AdE7j+aVH4b0TxP4W8Z6YklleW0U1wscxi+eGSM/e3Fcr055wRjNPlXRhdnuVFAoqCgooooAKKKKACiiigAooooAKQgNwQD9aWsnxJ4jsvDGlNe3zMRnbHEn3pW9B/j2oA1qK8K1j4ra/fysbaePToCcLHCoZvbLMCSfoB9Kqw6945YCaKbXnXqG+zyMp/wDHcVfIyeY9D+L9lHP4SjuSo822uUKt3Ab5SPxyPyFcL8KZ2h8fQIp4mtpkb3Hyt/7LWfq/jTxDqemPpesSs8bsrYmtvLcFTkYOB/Krfwu/5KHY/wDXGb/0Gna0RX1PRvivpf2/wdJcqAZLGRZgcc7fut+hz+Fec/DHUf7O8dWas2I7xHtm+pG5f1UD8a90vbSO/sbi0mGYriNonHswwf5180FrjQtXDMCtzp9wGI/2o25/lSjqrDe9z6ez+VfO0P8AxVXxCi3KXj1DUdzD/plu3Ef98LivbPFOrpZ+CdQ1GFshrUmJh6uMKfzYV5Z8ItP+1eM2uSPksbVmB/2nO0fpvojomwersYMDN4X8bxM5I/s7UNrH/YD7T/46TX0bXhPxX037J40uHAwl7Ckwx642H9Vz+NeueFdWXUfB2najM+N1qrSsezKMN+oNEtUmEd7HknxU1H7f42mhUgpZxJAMeuNx/VsfhXoHwn0r+z/BUVy64l1CRrk5HO37qf8Ajqg/jXjdw0/iTXn2f8fGp3WF9jI/9Af0r6UtLaOys4bWBdsUEaxoPRQMD+VEtEkC3ueBfEKKWHx7qvndWkV1PqpRcf4fhXpfwr1qwuvCdppkUqLe2asssJOGPzE7wO4Oc59al8f+BB4qhju7J0h1KBdql/uSp12t6YOcH3Prx41qejapoE//ABMrK5s3Q/LKV+XPqrjj8jT+JWFqmfTFFfP+kfEfxHpQULfm7hH8F0PMB/4F979a9H8JfE6y8QXUdjfQ/Yb6TiMbt0cp9FPY+x/AmpcWilJM7migGipGFFFFABRRRQAUUUUAFFFFABXinxe1CS58WR2hY+VaW67V7bnySfyCj8K9rrx34xaPLBrVtqyoTb3EQhduyyLnAP1U8f7pqo7ilsXvg5oFpNbXetzxJLcpObeAsM+UAoJI9CS3X0FeqV4Z8PvHUfhQ3FpfRSyWNw4k3RDLRvjBOO4IA/LvXc3Xxe8PQxE263ly+OFWHbz7liKck7iTVh/xcmSPwUY2I3S3MaoPcEsf0Brzv4Xf8lCsf+uM3/oNM1zWNb+IN9c3MVqxtNOhaUxRnKQJ3yf4nP5kA4AFZXhnWV8PeJbDVH/1UEmJf+ubDa36HP4VSWlhN6n0nXhHxS0oad40nlVcRXsa3Ax6/db9Rn8a92ByAR0NeefGPSvtOgWmoopL2c21yB/A/HP/AAIL+dRF2ZUlocxrPiH7V8INEszITM0xt5Oeqw5/+1muj+C+n+ToWoagw+a6ufLX/djGP/Qi1eRSXLi1WJnJhiLSKnYEgbj+O0flX0N4G006T4K0m1YYkFuskg/23+Zv1aqloiY6s5H40afvsNM1FQP3UrQOe+GG4fqp/Osbw94i+yfCDWrbzMTQzG3jB/uzYPH5v+Veg/ELTv7S8Eakirl4o/PT2KHcf0BH414EtzItrJbKx8mV1kZfVlDBT+TN+dEdUD0Z13wo0r+0fGi3LLmLT4Wm6cb2+VP0LH8K90rz/wCDulfZPC02oOuJNQnLKf8Apmnyr+oY/jXoFTJ6lR2CmsiupV1DKRggjINeXXPxZvdJ8SajZ3thBcWkF1JEhiJjkVVbAznIPT261tW/xe8OTLmUXsB7h4N3/oJNLlYXRd1z4a+H9ZR2jtFsbphxPajZz7r91vxH4ivDL+zn0zUbm0kfbcWszRl0PRlONw/EZFeuar8YtJgt3Gl21xdXBHyGRPLjB9Tnn8APxFeU29pf+KNc+z24Mt/fSszNjABY5Zz6AZJ/Srjdbku3Q+iPDuoPqvhvTb6X/WXNtHK/H8RUE/rWjVfTrKPTtNtbKHPlW0SxJn0UAD+VWKzLCiiigAooooAKKKKACiiigAqvqGn2uqWUtnfQJPbyja8bjIP/ANf37VPkDqRzxS0AeZ3/AMFbOSZm07Vri2jPSOaISgfQ5B/PNJY/BSyjlDajq1zcoP8AlnDGIQfqck/livTaKrmYrIpaXpFjotgtlptrHb2y9EQdT3JPUn3Nc/p3wy8O6brT6ils8rbt8UMzBooD6quPyznHbFdbRU3GFVNV0y21nTLiwvULW9wmxwDg/UHsQcGrdFAHAJ8GfDwkUyXOpSoCCUeZcMPQ4UHH0rvgAoAAAA6AUtFNu4WGyxJNE8cihkdSrKehB4IrgW+DPh8k7bvVEXsonXgegJXNegUUJtAV9PsLfS9Ot7GzTy7e3jEca5zgAYHPerFFFIDl/EPw80LxHcNc3EElvdv96e2bYzf7w5DfUjNclcfBM5JtddIXsJrUMfzVh/KvVaKak0KyPK7X4JrvU3uuSMndYLcIT+LFv5V3fh7wppPhe3aPS7bY748yZzukkx/eY/y6e1XrnVLK1bbNcxqw6qDk/kKqHxLp/wDfkPv5ZrCpi6MHac0vmaww9SWsYs1hRWfb65YXDqiXADk4AcFc/nWhV06sKivBp+hMoSg7SVgoooqyQooooAKKKKACiiigCjqmmrqNuF3lJEO6Nx2NYsOt32lzfZ9RjMoH8X8WPUHuK6iq17YQX8PlTrkdiOqn2NcWJw05P2lGXLL8H6nTRrRS5KivH8V6DbLUrW/XMEoLd0PDD8Kt5FcXqOiXGnMZFzJCORIvVfqO31pbTxDe2wAZxMnpJyfz61xRzV0pezxULPv/AF/wTolgFNc1CV0dnRWJbeKLSXAnR4W9cbl/Mc/pWpBeW90MwTxyeytz+VenSxVGt8EkzjqUalP4lYnooozW5kFFFFABRRRQAUUmaXNABVLUrOa+iWOG6NunO/auS345pbjVrK1z5tzHuH8KncfyFZNz4rQZFpAWP96Q4H5CuLE4rDRi41Jfc9fw1OijQrSalCP9fMVPCcI+/dTH6KBSv4TgK/u7mUN23AEVlG51LXJjErM47qvyov1rp7K3/srSwkspkESlmY/nx7V5+GpYXEN8tK0V1Z116leilepeXY4vyWS7EB5cS7OPXdivQq4vQ4GvtZWRhkRkzP8AXt+v8q7SqyWnaE59G9PkLMp3lGPVIKKKK9s80KKKKACiiigAooooAKKKKADFZF/4dtros8P7iU85UfKfqP8ACtejFZVqFOtHlqK6Lp1J03eDscNeaPe2RJeEvGP44/mH+IqiMHkfnXo2KqXWkWV4SZoFLH+JflP5ivEr5H1oy+T/AMz06WZ9Ki+446HUryDHlXUqgdAWyPyNW4/EmoJ9543/AN5B/TFaM/hOM5Nvcuvs67v8Koy+GL9PuGGQez4P6iuN4bMaHw3+TudCrYSrvb5olXxXdD70EJ+mRUg8WSd7RP8Av4f8KzW0TUU62jn/AHWU/wBab/Y+o/8APnL+n+NL6zmS/m+7/gD9hg32+/8A4JpnxZL2tEH1c/4VG/iq7P3YYF/An+tUBo2ok4+xy/iQP61PH4c1FyMxRp/vSD+maar5lPRc33f8AXssHHt94kniHUZBgThB/sIBVKa7uLj/AF08kn+8xIrah8JyE/v7pVHpGuf1P+FaVv4c0+DBaNpmHeU5H5dK0jgMfX/iSsvN/oQ8VhaXwL7kclbW012+y2heQ/7I4H1PSt2x8LEkPfScf88oz/M/4V0aRrGoVFCqOgAwKdivQw+TUaetT3n+ByVsxqT0hp+ZFBbxW0QigjWNB0CisvxJcslklrEC0ty20KvUgdf6Vs0hRSwYgEjocdK9KtS56Tpxdr6fI46dTlmpy1sZ+i6Z/ZtnhsGaQ7pCPXsPwrRoFFVSpxpQUI7Imc3OTlLdhRRRWhIUUUUAFFFFABRRRQAUUUUAFFFFABRRRQAUYoooATFLRRQAUmKWigAooooAKKKKACiiigAooooAKKKKACiiigAooooAKKKKACiiigAooooAKKKKACiiigAooooAKKKKACiiigAooooAKKKKACiiigAooooAKKKKACiiigAooooAKKKKACiiigAooooAKKKKACiiigAooooAKKKKACiiigAooooAKKKKACiiigAooooAKKKKACiiigAooooAKKKKACiiigAooooAKKKKACiiigAooooAKKKKACiiigAooooAKKKKACiiigD/2Q==;" vertex="1" parent="1">
          <mxGeometry x="619" y="555" width="50" height="50" as="geometry" />
        </mxCell>
        <mxCell id="4ikW2BazAHk21ai5Y3Cd-134" value="aws cloud" style="text;strokeColor=none;align=center;fillColor=none;html=1;verticalAlign=middle;whiteSpace=wrap;rounded=0;" vertex="1" parent="1">
          <mxGeometry x="619" y="575" width="70" height="50" as="geometry" />
        </mxCell>
        <mxCell id="4ikW2BazAHk21ai5Y3Cd-135" value="&lt;font style=&quot;font-size: 15px;&quot;&gt;configure aws credentials&lt;/font&gt;" style="text;strokeColor=none;align=center;fillColor=none;html=1;verticalAlign=middle;whiteSpace=wrap;rounded=0;" vertex="1" parent="1">
          <mxGeometry x="543" y="615" width="70" height="50" as="geometry" />
        </mxCell>
        <mxCell id="4ikW2BazAHk21ai5Y3Cd-136" value="" style="sketch=0;outlineConnect=0;fontColor=#232F3E;gradientColor=none;fillColor=#DD344C;strokeColor=none;dashed=0;verticalLabelPosition=bottom;verticalAlign=top;align=center;html=1;fontSize=12;fontStyle=0;aspect=fixed;pointerEvents=1;shape=mxgraph.aws4.permissions;" vertex="1" parent="1">
          <mxGeometry x="547" y="699.71" width="36" height="45.29" as="geometry" />
        </mxCell>
        <mxCell id="4ikW2BazAHk21ai5Y3Cd-137" value="" style="outlineConnect=0;dashed=0;verticalLabelPosition=bottom;verticalAlign=top;align=center;html=1;shape=mxgraph.aws3.iam;fillColor=#759C3E;gradientColor=none;" vertex="1" parent="1">
          <mxGeometry x="634" y="625" width="20" height="32" as="geometry" />
        </mxCell>
        <mxCell id="4ikW2BazAHk21ai5Y3Cd-139" value="Iam" style="text;strokeColor=none;align=center;fillColor=none;html=1;verticalAlign=middle;whiteSpace=wrap;rounded=0;" vertex="1" parent="1">
          <mxGeometry x="609" y="645" width="70" height="50" as="geometry" />
        </mxCell>
        <mxCell id="4ikW2BazAHk21ai5Y3Cd-140" value="" style="sketch=0;outlineConnect=0;fontColor=#232F3E;gradientColor=none;fillColor=#DD344C;strokeColor=none;dashed=0;verticalLabelPosition=bottom;verticalAlign=top;align=center;html=1;fontSize=12;fontStyle=0;aspect=fixed;pointerEvents=1;shape=mxgraph.aws4.role;" vertex="1" parent="1">
          <mxGeometry x="540" y="669.28" width="38" height="21.44" as="geometry" />
        </mxCell>
        <mxCell id="4ikW2BazAHk21ai5Y3Cd-142" value="" style="outlineConnect=0;dashed=0;verticalLabelPosition=bottom;verticalAlign=top;align=center;html=1;shape=mxgraph.aws3.ecr;fillColor=#F58534;gradientColor=none;" vertex="1" parent="1">
          <mxGeometry x="730" y="613" width="69" height="72" as="geometry" />
        </mxCell>
        <mxCell id="4ikW2BazAHk21ai5Y3Cd-143" value="&lt;font color=&quot;#ff0a23&quot;&gt;Build, tag, push docker image to ECR&lt;/font&gt;" style="text;strokeColor=none;align=center;fillColor=none;html=1;verticalAlign=middle;whiteSpace=wrap;rounded=0;" vertex="1" parent="1">
          <mxGeometry x="713" y="685" width="110" height="50" as="geometry" />
        </mxCell>
        <mxCell id="4ikW2BazAHk21ai5Y3Cd-144" value="" style="sketch=0;points=[[0,0,0],[0.25,0,0],[0.5,0,0],[0.75,0,0],[1,0,0],[0,1,0],[0.25,1,0],[0.5,1,0],[0.75,1,0],[1,1,0],[0,0.25,0],[0,0.5,0],[0,0.75,0],[1,0.25,0],[1,0.5,0],[1,0.75,0]];outlineConnect=0;fontColor=#232F3E;fillColor=#ED7100;strokeColor=#ffffff;dashed=0;verticalLabelPosition=bottom;verticalAlign=top;align=center;html=1;fontSize=12;fontStyle=0;aspect=fixed;shape=mxgraph.aws4.resourceIcon;resIcon=mxgraph.aws4.ecr;" vertex="1" parent="1">
          <mxGeometry x="626.86" y="685" width="40" height="40" as="geometry" />
        </mxCell>
        <mxCell id="4ikW2BazAHk21ai5Y3Cd-145" value="create ECR" style="text;strokeColor=none;align=center;fillColor=none;html=1;verticalAlign=middle;whiteSpace=wrap;rounded=0;" vertex="1" parent="1">
          <mxGeometry x="609" y="715" width="70" height="50" as="geometry" />
        </mxCell>
        <mxCell id="4ikW2BazAHk21ai5Y3Cd-148" value="" style="endArrow=none;dashed=1;html=1;dashPattern=1 3;strokeWidth=2;rounded=0;" edge="1" parent="1">
          <mxGeometry width="50" height="50" relative="1" as="geometry">
            <mxPoint x="433" y="585" as="sourcePoint" />
            <mxPoint x="483" y="535" as="targetPoint" />
          </mxGeometry>
        </mxCell>
        <mxCell id="4ikW2BazAHk21ai5Y3Cd-149" value="" style="shape=partialRectangle;whiteSpace=wrap;html=1;top=0;left=0;fillColor=none;" vertex="1" parent="1">
          <mxGeometry x="664" y="765" width="109" height="115" as="geometry" />
        </mxCell>
        <mxCell id="4ikW2BazAHk21ai5Y3Cd-150" value="&lt;font color=&quot;#ff0a23&quot;&gt;pull docker image to EC2&lt;/font&gt;" style="text;strokeColor=none;align=center;fillColor=none;html=1;verticalAlign=middle;whiteSpace=wrap;rounded=0;" vertex="1" parent="1">
          <mxGeometry x="737" y="825" width="110" height="50" as="geometry" />
        </mxCell>
        <mxCell id="4ikW2BazAHk21ai5Y3Cd-151" value="" style="sketch=0;points=[[0,0,0],[0.25,0,0],[0.5,0,0],[0.75,0,0],[1,0,0],[0,1,0],[0.25,1,0],[0.5,1,0],[0.75,1,0],[1,1,0],[0,0.25,0],[0,0.5,0],[0,0.75,0],[1,0.25,0],[1,0.5,0],[1,0.75,0]];outlineConnect=0;fontColor=#232F3E;fillColor=#ED7100;strokeColor=#ffffff;dashed=0;verticalLabelPosition=bottom;verticalAlign=top;align=center;html=1;fontSize=12;fontStyle=0;aspect=fixed;shape=mxgraph.aws4.resourceIcon;resIcon=mxgraph.aws4.ec2;" vertex="1" parent="1">
          <mxGeometry x="641" y="845" width="78" height="78" as="geometry" />
        </mxCell>
        <mxCell id="4ikW2BazAHk21ai5Y3Cd-153" value="return" style="html=1;verticalAlign=bottom;endArrow=open;dashed=1;endSize=8;curved=0;rounded=0;" edge="1" parent="1">
          <mxGeometry relative="1" as="geometry">
            <mxPoint x="624" y="882" as="sourcePoint" />
            <mxPoint x="544" y="882" as="targetPoint" />
          </mxGeometry>
        </mxCell>
        <mxCell id="4ikW2BazAHk21ai5Y3Cd-154" value="open the port: HTTP: 8080" style="text;strokeColor=none;align=center;fillColor=none;html=1;verticalAlign=middle;whiteSpace=wrap;rounded=0;" vertex="1" parent="1">
          <mxGeometry x="449" y="855" width="90" height="50" as="geometry" />
        </mxCell>
        <mxCell id="4ikW2BazAHk21ai5Y3Cd-155" value="&lt;font style=&quot;font-size: 21px;&quot;&gt;&lt;b&gt;&lt;u&gt;End to End deployment of USVisa prediction application to AWS EC2 using Docker, CI/CD tool GitHub Actions&lt;/u&gt;&lt;/b&gt;&lt;/font&gt;" style="text;strokeColor=none;align=center;fillColor=none;html=1;verticalAlign=middle;whiteSpace=wrap;rounded=0;" vertex="1" parent="1">
          <mxGeometry x="197.66" y="180" width="454" height="30" as="geometry" />
        </mxCell>
      </root>
    </mxGraphModel>
  </diagram>
</mxfile>
